<?xml version="1.0" encoding="UTF-8" standalone="no"?>
<!-- Generator: Adobe Illustrator 26.3.1, SVG Export Plug-In . SVG Version: 6.00 Build 0)  -->

<svg
   version="1.1"
   id="レイヤー_1"
   x="0px"
   y="0px"
   viewBox="0 0 270 182"
   xml:space="preserve"
   sodipodi:docname="ait-wd-logo_black.svg"
   inkscape:version="1.2 (dc2aeda, 2022-05-15)"
   inkscape:export-filename="ait-wd-logo_white_delpad.svg"
   inkscape:export-xdpi="96"
   inkscape:export-ydpi="96"
   width="270"
   height="182"
   xmlns:inkscape="http://www.inkscape.org/namespaces/inkscape"
   xmlns:sodipodi="http://sodipodi.sourceforge.net/DTD/sodipodi-0.dtd"
   xmlns="http://www.w3.org/2000/svg"
   xmlns:svg="http://www.w3.org/2000/svg"><defs
   id="defs122" /><sodipodi:namedview
   id="namedview120"
   pagecolor="#ffffff"
   bordercolor="#666666"
   borderopacity="1.0"
   inkscape:pageshadow="2"
   inkscape:pageopacity="0.0"
   inkscape:pagecheckerboard="0"
   showgrid="false"
   inkscape:zoom="2.0575"
   inkscape:cx="200.24301"
   inkscape:cy="200.48603"
   inkscape:window-width="1652"
   inkscape:window-height="1027"
   inkscape:window-x="0"
   inkscape:window-y="25"
   inkscape:window-maximized="0"
   inkscape:current-layer="レイヤー_1"
   inkscape:showpageshadow="0"
   inkscape:deskcolor="#d1d1d1" />
<style
   type="text/css"
   id="style2">
	.st0{fill:#242424;}
</style>
<g
   id="Row_03_x2C__03"
   transform="translate(0,-2)"
   style="fill:#ffffff">
	<g
   id="g16"
   transform="translate(-65.183475,-106.38396)"
   style="fill:#ffffff">
		<path
   class="st0"
   d="m 101.4,213.1 2.4,-0.4 10.4,-29.7 h 7 l 10.3,29.7 2.4,0.4 v 4.1 h -11.6 v -4.1 l 2.4,-0.4 -1.5,-4.7 h -11.1 l -1.5,4.7 2.4,0.4 v 4.1 H 101.4 Z M 113.8,203 h 7.8 l -3.8,-12 h -0.1 z"
   id="path4"
   style="fill:#ffffff" />
		<path
   class="st0"
   d="m 140.9,187.2 v -4.1 H 155 v 4.1 l -3.7,0.7 v 24.5 l 3.7,0.7 v 4.1 h -14.1 v -4.1 l 3.7,-0.7 v -24.5 z"
   id="path6"
   style="fill:#ffffff" />
		<path
   class="st0"
   d="m 192.4,183.1 v 9.1 h -5.2 l -0.3,-3.8 h -6.3 v 24 l 3.7,0.7 v 4.1 h -14.2 v -4.1 l 3.7,-0.7 v -24 h -6.3 l -0.3,3.8 H 162 v -9.1 z"
   id="path8"
   style="fill:#ffffff" />
		<path
   class="st0"
   d="M 208.4,205.3 H 195.2 V 200 h 13.2 z"
   id="path10"
   style="fill:#ffffff" />
		<path
   class="st0"
   d="m 258.7,187.2 -2.8,0.4 -6.9,29.6 h -6.4 l -6.3,-22.5 h -0.1 l -6.3,22.5 h -6.4 l -7,-29.6 -2.8,-0.4 v -4.1 h 12.6 v 4.1 l -3.1,0.5 3.9,18.7 h 0.1 l 6.4,-23.4 h 5 l 6.4,23.4 h 0.1 l 3.9,-18.7 -3.1,-0.5 v -4.1 h 12.5 v 4.1 z"
   id="path12"
   style="fill:#ffffff" />
		<path
   class="st0"
   d="m 280.9,183.1 c 4.2,0 7.6,1.3 10.3,4 2.7,2.7 4.1,6.1 4.1,10.3 v 5.6 c 0,4.2 -1.4,7.6 -4.1,10.3 -2.7,2.7 -6.1,4 -10.3,4 h -15.4 v -4.1 l 3.6,-0.7 V 188 l -3.6,-0.7 v -4.1 h 3.6 11.8 z m -4.9,5.3 V 212 h 4.5 c 2.5,0 4.4,-0.8 5.8,-2.5 1.4,-1.7 2.1,-3.8 2.1,-6.5 v -5.7 c 0,-2.6 -0.7,-4.8 -2.1,-6.4 -1.4,-1.7 -3.3,-2.5 -5.8,-2.5 z"
   id="path14"
   style="fill:#ffffff" />
	</g>
	<g
   id="g56"
   transform="translate(-65.183475,-106.38396)"
   style="fill:#ffffff">
		<path
   class="st0"
   d="m 66.9,248.6 v -10.8 h 1.8 c 0.4,0 0.6,0.2 0.7,0.5 l 0.2,0.7 c 0.2,-0.2 0.4,-0.4 0.6,-0.5 0.2,-0.2 0.4,-0.3 0.6,-0.4 0.2,-0.1 0.5,-0.2 0.8,-0.3 0.3,-0.1 0.6,-0.1 0.9,-0.1 0.7,0 1.2,0.2 1.6,0.5 0.4,0.3 0.8,0.8 1,1.4 0.2,-0.3 0.4,-0.6 0.6,-0.9 0.3,-0.2 0.5,-0.4 0.8,-0.6 0.3,-0.2 0.6,-0.3 1,-0.3 0.3,-0.1 0.7,-0.1 1,-0.1 0.6,0 1.1,0.1 1.6,0.3 0.5,0.2 0.9,0.5 1.2,0.8 0.3,0.3 0.6,0.8 0.7,1.3 0.2,0.5 0.3,1.1 0.3,1.7 v 6.9 h -2.9 v -6.9 c 0,-1.3 -0.5,-1.9 -1.6,-1.9 -0.2,0 -0.5,0 -0.7,0.1 -0.2,0.1 -0.4,0.2 -0.5,0.4 -0.2,0.2 -0.3,0.4 -0.4,0.6 -0.1,0.2 -0.1,0.5 -0.1,0.8 v 6.9 h -2.9 v -6.9 c 0,-0.7 -0.1,-1.2 -0.4,-1.5 -0.3,-0.3 -0.7,-0.4 -1.2,-0.4 -0.3,0 -0.7,0.1 -1,0.2 -0.3,0.2 -0.6,0.4 -0.8,0.7 v 7.9 h -2.9 z"
   id="path18"
   style="fill:#ffffff" />
		<path
   class="st0"
   d="m 86.7,239.3 c 0.6,-0.6 1.3,-1 2.1,-1.3 0.8,-0.3 1.6,-0.4 2.5,-0.4 0.6,0 1.2,0.1 1.7,0.3 0.5,0.2 0.9,0.5 1.3,0.9 0.4,0.4 0.6,0.8 0.8,1.3 0.2,0.5 0.3,1.1 0.3,1.7 v 6.8 h -1.3 c -0.3,0 -0.5,0 -0.6,-0.1 -0.1,-0.1 -0.3,-0.2 -0.4,-0.5 l -0.2,-0.7 c -0.3,0.2 -0.5,0.4 -0.8,0.6 -0.3,0.2 -0.5,0.3 -0.8,0.5 -0.3,0.1 -0.6,0.2 -0.9,0.3 -0.3,0.1 -0.7,0.1 -1,0.1 -0.5,0 -0.9,-0.1 -1.3,-0.2 -0.4,-0.1 -0.7,-0.3 -1,-0.6 -0.3,-0.2 -0.5,-0.6 -0.7,-0.9 -0.2,-0.3 -0.2,-0.8 -0.2,-1.3 0,-0.4 0.1,-0.8 0.3,-1.2 0.2,-0.4 0.6,-0.8 1,-1.1 0.5,-0.3 1.2,-0.6 2,-0.8 0.8,-0.2 1.9,-0.3 3.1,-0.4 v -0.6 c 0,-0.7 -0.1,-1.2 -0.4,-1.5 -0.3,-0.3 -0.7,-0.5 -1.2,-0.5 -0.4,0 -0.7,0 -1,0.1 -0.3,0.1 -0.5,0.2 -0.7,0.3 -0.2,0.1 -0.4,0.2 -0.6,0.3 -0.2,0.1 -0.4,0.1 -0.6,0.1 -0.2,0 -0.4,-0.1 -0.5,-0.2 -0.1,-0.1 -0.2,-0.2 -0.3,-0.4 z m 5.9,4.8 c -0.7,0 -1.3,0.1 -1.8,0.2 -0.5,0.1 -0.8,0.2 -1.1,0.3 -0.3,0.1 -0.5,0.3 -0.6,0.5 -0.1,0.2 -0.2,0.4 -0.2,0.6 0,0.4 0.1,0.7 0.4,0.9 0.2,0.2 0.6,0.3 1,0.3 0.5,0 0.9,-0.1 1.3,-0.3 0.4,-0.2 0.7,-0.4 1.1,-0.8 v -1.7 z"
   id="path20"
   style="fill:#ffffff" />
		<path
   class="st0"
   d="m 103,233 v 8.9 h 0.5 c 0.2,0 0.3,0 0.4,-0.1 0.1,-0.1 0.2,-0.1 0.3,-0.3 l 2.4,-3.2 c 0.1,-0.2 0.3,-0.3 0.4,-0.4 0.1,-0.1 0.3,-0.1 0.6,-0.1 h 2.6 l -3.1,3.9 c -0.2,0.3 -0.5,0.6 -0.9,0.8 0.2,0.1 0.3,0.2 0.4,0.4 0.1,0.1 0.2,0.3 0.3,0.5 l 3.3,5.2 h -2.6 c -0.2,0 -0.4,0 -0.6,-0.1 -0.2,-0.1 -0.3,-0.2 -0.4,-0.4 l -2.4,-4 c -0.1,-0.2 -0.2,-0.3 -0.3,-0.3 -0.1,0 -0.3,-0.1 -0.5,-0.1 H 103 v 4.9 h -2.9 V 233 Z"
   id="path22"
   style="fill:#ffffff" />
		<path
   class="st0"
   d="m 115.8,243.7 c 0.1,1 0.4,1.8 0.9,2.2 0.5,0.5 1.1,0.7 1.9,0.7 0.4,0 0.7,0 1,-0.1 0.3,-0.1 0.5,-0.2 0.8,-0.3 0.2,-0.1 0.4,-0.2 0.6,-0.3 0.2,-0.1 0.4,-0.1 0.5,-0.1 0.2,0 0.4,0.1 0.5,0.3 l 0.8,1 c -0.3,0.4 -0.6,0.7 -1,0.9 -0.4,0.2 -0.8,0.4 -1.2,0.6 -0.4,0.1 -0.8,0.2 -1.2,0.3 -0.4,0.1 -0.8,0.1 -1.2,0.1 -0.8,0 -1.5,-0.1 -2.1,-0.4 -0.7,-0.2 -1.2,-0.6 -1.7,-1.1 -0.5,-0.5 -0.9,-1.1 -1.1,-1.8 -0.3,-0.7 -0.4,-1.6 -0.4,-2.5 0,-0.7 0.1,-1.4 0.4,-2.1 0.2,-0.7 0.6,-1.2 1,-1.7 0.5,-0.5 1,-0.9 1.7,-1.1 0.7,-0.2 1.4,-0.4 2.2,-0.4 0.7,0 1.3,0.1 1.9,0.3 0.6,0.2 1.1,0.5 1.5,1 0.4,0.4 0.8,0.9 1,1.5 0.2,0.6 0.4,1.3 0.4,2.1 0,0.2 0,0.4 0,0.5 0,0.1 -0.1,0.3 -0.1,0.3 0,0.1 -0.1,0.1 -0.2,0.2 -0.1,0.1 -0.2,0 -0.3,0 h -6.6 z m 4.6,-1.7 c 0,-0.3 0,-0.6 -0.1,-0.9 -0.1,-0.3 -0.2,-0.5 -0.4,-0.7 -0.2,-0.2 -0.4,-0.4 -0.7,-0.5 -0.3,-0.1 -0.6,-0.2 -1,-0.2 -0.7,0 -1.2,0.2 -1.6,0.6 -0.4,0.4 -0.6,1 -0.8,1.7 z"
   id="path24"
   style="fill:#ffffff" />
		<path
   class="st0"
   d="m 134.3,239.3 c 0.6,-0.6 1.3,-1 2.1,-1.3 0.8,-0.3 1.6,-0.4 2.5,-0.4 0.6,0 1.2,0.1 1.7,0.3 0.5,0.2 0.9,0.5 1.3,0.9 0.4,0.4 0.6,0.8 0.8,1.3 0.2,0.5 0.3,1.1 0.3,1.7 v 6.8 h -1.3 c -0.3,0 -0.5,0 -0.6,-0.1 -0.1,-0.1 -0.3,-0.2 -0.4,-0.5 l -0.2,-0.7 c -0.3,0.2 -0.5,0.4 -0.8,0.6 -0.3,0.2 -0.5,0.3 -0.8,0.5 -0.3,0.1 -0.6,0.2 -0.9,0.3 -0.3,0.1 -0.7,0.1 -1,0.1 -0.5,0 -0.9,-0.1 -1.3,-0.2 -0.4,-0.1 -0.7,-0.3 -1,-0.6 -0.3,-0.2 -0.5,-0.6 -0.7,-0.9 -0.2,-0.3 -0.2,-0.8 -0.2,-1.3 0,-0.4 0.1,-0.8 0.3,-1.2 0.2,-0.4 0.6,-0.8 1,-1.1 0.5,-0.3 1.2,-0.6 2,-0.8 0.8,-0.2 1.9,-0.3 3.1,-0.4 v -0.6 c 0,-0.7 -0.1,-1.2 -0.4,-1.5 -0.3,-0.3 -0.7,-0.5 -1.2,-0.5 -0.4,0 -0.7,0 -1,0.1 -0.3,0.1 -0.5,0.2 -0.7,0.3 -0.2,0.1 -0.4,0.2 -0.6,0.3 -0.2,0.1 -0.4,0.1 -0.6,0.1 -0.2,0 -0.4,-0.1 -0.5,-0.2 -0.1,-0.1 -0.2,-0.2 -0.3,-0.4 z m 5.9,4.8 c -0.7,0 -1.3,0.1 -1.8,0.2 -0.5,0.1 -0.8,0.2 -1.1,0.3 -0.3,0.1 -0.5,0.3 -0.6,0.5 -0.1,0.2 -0.2,0.4 -0.2,0.6 0,0.4 0.1,0.7 0.4,0.9 0.2,0.2 0.6,0.3 1,0.3 0.5,0 0.9,-0.1 1.3,-0.3 0.4,-0.2 0.7,-0.4 1.1,-0.8 v -1.7 z"
   id="path26"
   style="fill:#ffffff" />
		<path
   class="st0"
   d="m 157.4,243.7 c 0.1,1 0.4,1.8 0.9,2.2 0.5,0.5 1.1,0.7 1.9,0.7 0.4,0 0.7,0 1,-0.1 0.3,-0.1 0.5,-0.2 0.8,-0.3 0.2,-0.1 0.4,-0.2 0.6,-0.3 0.2,-0.1 0.4,-0.1 0.5,-0.1 0.2,0 0.4,0.1 0.5,0.3 l 0.8,1 c -0.3,0.4 -0.6,0.7 -1,0.9 -0.4,0.2 -0.8,0.4 -1.2,0.6 -0.4,0.1 -0.8,0.2 -1.2,0.3 -0.4,0.1 -0.8,0.1 -1.2,0.1 -0.8,0 -1.5,-0.1 -2.1,-0.4 -0.7,-0.2 -1.2,-0.6 -1.7,-1.1 -0.5,-0.5 -0.9,-1.1 -1.1,-1.8 -0.3,-0.7 -0.4,-1.6 -0.4,-2.5 0,-0.7 0.1,-1.4 0.4,-2.1 0.2,-0.7 0.6,-1.2 1,-1.7 0.5,-0.5 1,-0.9 1.7,-1.1 0.7,-0.2 1.4,-0.4 2.2,-0.4 0.7,0 1.3,0.1 1.9,0.3 0.6,0.2 1.1,0.5 1.5,1 0.4,0.4 0.8,0.9 1,1.5 0.2,0.6 0.4,1.3 0.4,2.1 0,0.2 0,0.4 0,0.5 0,0.1 -0.1,0.3 -0.1,0.3 0,0.1 -0.1,0.1 -0.2,0.2 -0.1,0.1 -0.2,0 -0.3,0 h -6.6 z M 162,242 c 0,-0.3 0,-0.6 -0.1,-0.9 -0.1,-0.3 -0.2,-0.5 -0.4,-0.7 -0.2,-0.2 -0.4,-0.4 -0.7,-0.5 -0.3,-0.1 -0.6,-0.2 -1,-0.2 -0.7,0 -1.2,0.2 -1.6,0.6 -0.4,0.4 -0.6,1 -0.8,1.7 z"
   id="path28"
   style="fill:#ffffff" />
		<path
   class="st0"
   d="m 178.6,248.6 h -2.8 c -0.2,0 -0.4,-0.1 -0.5,-0.2 -0.1,-0.1 -0.2,-0.2 -0.3,-0.4 l -2.1,-3.6 c -0.1,0.2 -0.2,0.4 -0.3,0.6 l -1.8,2.9 c -0.1,0.1 -0.2,0.3 -0.3,0.4 -0.1,0.1 -0.3,0.2 -0.5,0.2 h -2.6 l 3.7,-5.6 -3.5,-5.2 h 2.8 c 0.2,0 0.4,0 0.5,0.1 0.1,0.1 0.2,0.1 0.3,0.3 l 2.1,3.4 c 0,-0.1 0.1,-0.2 0.1,-0.4 0.1,-0.1 0.1,-0.2 0.2,-0.4 l 1.6,-2.7 c 0.2,-0.3 0.4,-0.4 0.7,-0.4 h 2.7 l -3.5,5.1 z"
   id="path30"
   style="fill:#ffffff" />
		<path
   class="st0"
   d="m 189.7,240.2 c -0.1,0.1 -0.2,0.2 -0.3,0.3 -0.1,0.1 -0.2,0.1 -0.4,0.1 -0.1,0 -0.3,0 -0.4,-0.1 -0.1,-0.1 -0.3,-0.2 -0.4,-0.3 -0.1,-0.1 -0.4,-0.2 -0.6,-0.3 -0.2,-0.1 -0.5,-0.1 -0.9,-0.1 -0.4,0 -0.8,0.1 -1.1,0.2 -0.3,0.2 -0.6,0.4 -0.8,0.7 -0.2,0.3 -0.4,0.7 -0.5,1.1 -0.1,0.4 -0.2,0.9 -0.2,1.4 0,1.1 0.2,2 0.7,2.5 0.4,0.6 1.1,0.9 1.8,0.9 0.3,0 0.5,0 0.7,-0.1 0.2,0 0.4,-0.1 0.5,-0.2 0.1,-0.1 0.3,-0.1 0.4,-0.2 0.1,-0.1 0.2,-0.2 0.3,-0.2 0.1,-0.1 0.2,-0.1 0.3,-0.2 0.1,0 0.2,-0.1 0.3,-0.1 0.2,0 0.4,0.1 0.5,0.3 l 0.8,1 c -0.3,0.4 -0.6,0.7 -1,0.9 -0.4,0.2 -0.7,0.4 -1.1,0.6 -0.4,0.1 -0.8,0.2 -1.1,0.3 -0.4,0.1 -0.8,0.1 -1.1,0.1 -0.7,0 -1.3,-0.1 -1.9,-0.4 -0.6,-0.2 -1.1,-0.6 -1.6,-1.1 -0.4,-0.5 -0.8,-1.1 -1.1,-1.8 -0.3,-0.7 -0.4,-1.5 -0.4,-2.4 0,-0.8 0.1,-1.5 0.3,-2.2 0.2,-0.7 0.6,-1.3 1,-1.8 0.4,-0.5 1,-0.9 1.7,-1.2 0.7,-0.3 1.4,-0.4 2.3,-0.4 0.8,0 1.6,0.1 2.2,0.4 0.6,0.3 1.2,0.7 1.7,1.2 z"
   id="path32"
   style="fill:#ffffff" />
		<path
   class="st0"
   d="m 197.5,234.7 c 0,0.2 0,0.5 -0.1,0.7 -0.1,0.2 -0.2,0.4 -0.4,0.6 -0.2,0.2 -0.4,0.3 -0.6,0.4 -0.2,0.1 -0.5,0.1 -0.7,0.1 -0.2,0 -0.5,0 -0.7,-0.1 -0.2,-0.1 -0.4,-0.2 -0.6,-0.4 -0.2,-0.2 -0.3,-0.3 -0.4,-0.6 -0.1,-0.2 -0.1,-0.4 -0.1,-0.7 0,-0.2 0,-0.5 0.1,-0.7 0.1,-0.2 0.2,-0.4 0.4,-0.6 0.2,-0.2 0.3,-0.3 0.6,-0.4 0.2,-0.1 0.4,-0.1 0.7,-0.1 0.3,0 0.5,0 0.7,0.1 0.2,0.1 0.4,0.2 0.6,0.4 0.2,0.2 0.3,0.3 0.4,0.6 0.1,0.3 0.1,0.5 0.1,0.7 z m -0.3,3.1 v 10.8 h -2.9 v -10.8 z"
   id="path34"
   style="fill:#ffffff" />
		<path
   class="st0"
   d="m 213.2,248.6 h -2.9 v -8.7 h -4.8 v 5.6 c 0,0.3 0.1,0.5 0.2,0.7 0.1,0.2 0.3,0.3 0.6,0.3 0.1,0 0.3,0 0.4,0 0.1,0 0.2,-0.1 0.3,-0.1 0.1,0 0.1,-0.1 0.2,-0.1 0.1,0 0.1,0 0.2,0 0.1,0 0.2,0 0.2,0.1 0.1,0 0.1,0.1 0.2,0.2 l 0.9,1.4 c -0.4,0.3 -0.8,0.6 -1.4,0.7 -0.6,0.1 -1,0.2 -1.6,0.2 -0.5,0 -0.9,-0.1 -1.3,-0.2 -0.4,-0.1 -0.7,-0.3 -1,-0.6 -0.3,-0.3 -0.5,-0.6 -0.6,-1 -0.1,-0.4 -0.2,-0.8 -0.2,-1.3 V 240 h -1 c -0.2,0 -0.3,0 -0.4,-0.1 -0.1,-0.1 -0.2,-0.2 -0.2,-0.4 v -1.1 l 1.7,-0.3 0.6,-2.8 c 0.1,-0.3 0.3,-0.5 0.6,-0.5 h 1.5 v 3.3 h 7.7 v 10.5 z m 0.4,-13.9 c 0,0.2 0,0.5 -0.1,0.7 -0.1,0.2 -0.2,0.4 -0.4,0.6 -0.2,0.2 -0.4,0.3 -0.6,0.4 -0.2,0.1 -0.5,0.1 -0.7,0.1 -0.2,0 -0.5,0 -0.7,-0.1 -0.2,-0.1 -0.4,-0.2 -0.6,-0.4 -0.2,-0.2 -0.3,-0.3 -0.4,-0.6 -0.1,-0.2 -0.1,-0.4 -0.1,-0.7 0,-0.2 0,-0.5 0.1,-0.7 0.1,-0.2 0.2,-0.4 0.4,-0.6 0.2,-0.2 0.3,-0.3 0.6,-0.4 0.2,-0.1 0.4,-0.1 0.7,-0.1 0.3,0 0.5,0 0.7,0.1 0.2,0.1 0.4,0.2 0.6,0.4 0.2,0.2 0.3,0.3 0.4,0.6 0.1,0.2 0.1,0.5 0.1,0.7 z"
   id="path36"
   style="fill:#ffffff" />
		<path
   class="st0"
   d="m 220.7,239.1 c 0.2,-0.2 0.4,-0.4 0.7,-0.6 0.2,-0.2 0.5,-0.3 0.7,-0.5 0.2,-0.2 0.5,-0.2 0.9,-0.3 0.3,-0.1 0.6,-0.1 1,-0.1 0.6,0 1.1,0.1 1.6,0.3 0.5,0.2 0.8,0.5 1.2,0.9 0.3,0.4 0.5,0.8 0.7,1.3 0.2,0.5 0.2,1.1 0.2,1.7 v 6.9 h -2.9 v -6.9 c 0,-0.6 -0.1,-1.1 -0.4,-1.4 -0.3,-0.3 -0.7,-0.5 -1.2,-0.5 -0.4,0 -0.8,0.1 -1.1,0.3 -0.4,0.2 -0.7,0.4 -1,0.7 v 7.8 H 218 v -10.8 h 1.8 c 0.4,0 0.6,0.2 0.7,0.5 z"
   id="path38"
   style="fill:#ffffff" />
		<path
   class="st0"
   d="m 241.9,238.2 v 1.1 c 0,0.2 0,0.3 -0.1,0.4 -0.1,0.1 -0.3,0.2 -0.5,0.2 l -0.9,0.2 c 0.1,0.3 0.2,0.7 0.2,1.1 0,0.5 -0.1,1 -0.3,1.5 -0.2,0.4 -0.5,0.8 -0.9,1.1 -0.4,0.3 -0.8,0.5 -1.4,0.7 -0.5,0.2 -1.1,0.2 -1.7,0.2 -0.4,0 -0.7,0 -1.1,-0.1 -0.3,0.2 -0.4,0.4 -0.4,0.6 0,0.2 0.1,0.3 0.3,0.4 0.2,0.1 0.5,0.2 0.8,0.2 0.3,0 0.7,0.1 1.1,0.1 0.4,0 0.8,0 1.3,0.1 0.5,0.1 0.9,0.1 1.3,0.2 0.4,0.1 0.8,0.2 1.1,0.4 0.3,0.2 0.6,0.5 0.8,0.8 0.2,0.3 0.3,0.8 0.3,1.3 0,0.5 -0.1,1 -0.4,1.4 -0.3,0.4 -0.6,0.9 -1,1.2 -0.4,0.3 -1,0.6 -1.7,0.9 -0.7,0.2 -1.4,0.3 -2.2,0.3 -0.8,0 -1.6,-0.1 -2.2,-0.2 -0.6,-0.2 -1.1,-0.4 -1.5,-0.6 -0.4,-0.3 -0.7,-0.6 -0.9,-0.9 -0.2,-0.3 -0.3,-0.7 -0.3,-1.1 0,-0.5 0.1,-0.9 0.4,-1.2 0.3,-0.3 0.7,-0.6 1.2,-0.8 -0.3,-0.2 -0.5,-0.4 -0.7,-0.6 -0.2,-0.2 -0.2,-0.6 -0.2,-1 0,-0.3 0.1,-0.7 0.4,-1 0.2,-0.4 0.6,-0.7 1.1,-0.9 -0.6,-0.3 -1,-0.7 -1.3,-1.2 -0.3,-0.5 -0.5,-1.1 -0.5,-1.7 0,-0.5 0.1,-1 0.3,-1.5 0.2,-0.4 0.5,-0.8 0.9,-1.1 0.4,-0.3 0.9,-0.5 1.4,-0.7 0.5,-0.2 1.1,-0.2 1.7,-0.2 0.9,0 1.7,0.2 2.4,0.5 h 3.2 z m -2.9,10.9 c 0,-0.2 -0.1,-0.3 -0.2,-0.5 -0.1,-0.1 -0.3,-0.2 -0.5,-0.3 -0.2,-0.1 -0.4,-0.1 -0.7,-0.2 -0.3,0 -0.6,-0.1 -0.9,-0.1 -0.3,0 -0.6,0 -1,0 -0.3,0 -0.7,0 -1,-0.1 -0.2,0.1 -0.4,0.3 -0.6,0.5 -0.2,0.2 -0.2,0.4 -0.2,0.7 0,0.2 0,0.3 0.1,0.5 0.1,0.1 0.2,0.3 0.4,0.4 0.2,0.1 0.4,0.2 0.7,0.2 0.3,0.1 0.7,0.1 1.2,0.1 0.5,0 0.9,0 1.2,-0.1 0.3,-0.1 0.6,-0.2 0.8,-0.3 0.2,-0.1 0.3,-0.3 0.4,-0.4 0.3,0 0.3,-0.2 0.3,-0.4 z m -2.7,-6.3 c 0.6,0 1,-0.2 1.3,-0.5 0.3,-0.3 0.4,-0.7 0.4,-1.2 0,-0.5 -0.1,-0.9 -0.4,-1.2 -0.3,-0.3 -0.7,-0.4 -1.3,-0.4 -0.6,0 -1,0.1 -1.3,0.4 -0.3,0.3 -0.4,0.7 -0.4,1.2 0,0.5 0.1,0.9 0.4,1.2 0.3,0.4 0.7,0.5 1.3,0.5 z"
   id="path40"
   style="fill:#ffffff" />
		<path
   class="st0"
   d="m 254,248.6 v -8.7 l -0.8,-0.1 c -0.2,0 -0.4,-0.1 -0.5,-0.2 -0.1,-0.1 -0.2,-0.3 -0.2,-0.5 v -1.2 h 1.6 v -0.7 c 0,-0.6 0.1,-1.2 0.3,-1.7 0.2,-0.5 0.5,-0.9 0.8,-1.3 0.4,-0.3 0.8,-0.6 1.3,-0.8 0.5,-0.2 1.1,-0.3 1.8,-0.3 0.3,0 0.5,0 0.7,0 0.2,0 0.5,0.1 0.7,0.1 l -0.1,1.4 c 0,0.2 -0.1,0.4 -0.3,0.4 -0.2,0.1 -0.4,0.1 -0.6,0.1 -0.3,0 -0.6,0 -0.8,0.1 -0.2,0.1 -0.4,0.2 -0.6,0.3 -0.2,0.2 -0.3,0.4 -0.4,0.6 -0.1,0.2 -0.1,0.6 -0.1,1 v 0.6 h 2.7 v 2 h -2.6 v 8.7 H 254 Z"
   id="path42"
   style="fill:#ffffff" />
		<path
   class="st0"
   d="m 272.7,237.8 v 10.8 h -1.8 c -0.4,0 -0.6,-0.2 -0.7,-0.5 l -0.2,-0.8 c -0.2,0.2 -0.4,0.4 -0.7,0.6 -0.2,0.2 -0.5,0.3 -0.7,0.5 -0.3,0.1 -0.5,0.2 -0.9,0.3 -0.3,0.1 -0.6,0.1 -1,0.1 -0.6,0 -1.1,-0.1 -1.6,-0.3 -0.5,-0.2 -0.8,-0.5 -1.1,-0.9 -0.3,-0.4 -0.5,-0.8 -0.7,-1.3 -0.2,-0.5 -0.2,-1.1 -0.2,-1.7 v -6.9 h 2.9 v 6.9 c 0,0.6 0.1,1.1 0.4,1.4 0.3,0.3 0.7,0.5 1.2,0.5 0.4,0 0.8,-0.1 1.1,-0.3 0.4,-0.2 0.7,-0.4 1,-0.7 v -7.8 h 3 z"
   id="path44"
   style="fill:#ffffff" />
		<path
   class="st0"
   d="m 281.1,248.8 c -0.5,0 -0.9,-0.1 -1.3,-0.2 -0.4,-0.1 -0.7,-0.3 -1,-0.6 -0.3,-0.3 -0.5,-0.6 -0.6,-1 -0.1,-0.4 -0.2,-0.8 -0.2,-1.3 v -5.8 h -1 c -0.2,0 -0.3,0 -0.4,-0.1 -0.1,-0.1 -0.2,-0.2 -0.2,-0.4 v -1.1 l 1.7,-0.3 0.6,-2.8 c 0.1,-0.3 0.3,-0.5 0.6,-0.5 h 1.5 v 3.3 h 2.8 v 2 h -2.8 v 5.6 c 0,0.3 0.1,0.5 0.2,0.7 0.1,0.2 0.3,0.3 0.6,0.3 0.1,0 0.3,0 0.4,0 0.1,0 0.2,-0.1 0.3,-0.1 0.1,0 0.1,-0.1 0.2,-0.1 0.1,0 0.1,0 0.2,0 0.1,0 0.2,0 0.2,0.1 0.1,0 0.1,0.1 0.2,0.2 l 0.9,1.4 c -0.4,0.3 -0.8,0.6 -1.4,0.7 -0.5,-0.1 -1,0 -1.5,0 z"
   id="path46"
   style="fill:#ffffff" />
		<path
   class="st0"
   d="m 297,237.8 v 10.8 h -1.8 c -0.4,0 -0.6,-0.2 -0.7,-0.5 l -0.2,-0.8 c -0.2,0.2 -0.4,0.4 -0.7,0.6 -0.2,0.2 -0.5,0.3 -0.7,0.5 -0.3,0.1 -0.5,0.2 -0.9,0.3 -0.3,0.1 -0.6,0.1 -1,0.1 -0.6,0 -1.1,-0.1 -1.6,-0.3 -0.5,-0.2 -0.8,-0.5 -1.1,-0.9 -0.3,-0.4 -0.5,-0.8 -0.7,-1.3 -0.2,-0.5 -0.2,-1.1 -0.2,-1.7 v -6.9 h 2.9 v 6.9 c 0,0.6 0.1,1.1 0.4,1.4 0.3,0.3 0.7,0.5 1.2,0.5 0.4,0 0.8,-0.1 1.1,-0.3 0.4,-0.2 0.7,-0.4 1,-0.7 v -7.8 h 3 z"
   id="path48"
   style="fill:#ffffff" />
		<path
   class="st0"
   d="m 304.5,239.6 c 0.3,-0.6 0.7,-1.1 1.2,-1.5 0.4,-0.4 1,-0.5 1.6,-0.5 0.5,0 0.9,0.1 1.2,0.3 l -0.2,2.1 c 0,0.1 -0.1,0.2 -0.2,0.3 -0.1,0.1 -0.2,0.1 -0.3,0.1 -0.1,0 -0.3,0 -0.5,0 -0.2,0 -0.4,0 -0.6,0 -0.3,0 -0.5,0 -0.7,0.1 -0.2,0.1 -0.4,0.2 -0.6,0.3 -0.2,0.1 -0.3,0.3 -0.4,0.5 -0.1,0.2 -0.2,0.4 -0.4,0.7 v 6.6 h -2.9 v -10.8 h 1.7 c 0.3,0 0.5,0.1 0.6,0.2 0.1,0.1 0.2,0.3 0.2,0.5 z"
   id="path50"
   style="fill:#ffffff" />
		<path
   class="st0"
   d="m 314.3,243.7 c 0.1,1 0.4,1.8 0.9,2.2 0.5,0.4 1.1,0.7 1.9,0.7 0.4,0 0.7,0 1,-0.1 0.3,-0.1 0.5,-0.2 0.8,-0.3 0.2,-0.1 0.4,-0.2 0.6,-0.3 0.2,-0.1 0.4,-0.1 0.5,-0.1 0.2,0 0.4,0.1 0.5,0.3 l 0.8,1 c -0.3,0.4 -0.6,0.7 -1,0.9 -0.4,0.2 -0.8,0.4 -1.2,0.6 -0.4,0.1 -0.8,0.2 -1.2,0.3 -0.4,0.1 -0.8,0.1 -1.2,0.1 -0.8,0 -1.5,-0.1 -2.1,-0.4 -0.7,-0.2 -1.2,-0.6 -1.7,-1.1 -0.5,-0.5 -0.9,-1.1 -1.2,-1.8 -0.3,-0.7 -0.4,-1.6 -0.4,-2.5 0,-0.7 0.1,-1.4 0.4,-2.1 0.2,-0.7 0.6,-1.2 1,-1.7 0.5,-0.5 1,-0.9 1.7,-1.1 0.7,-0.2 1.4,-0.4 2.2,-0.4 0.7,0 1.3,0.1 1.9,0.3 0.6,0.2 1.1,0.5 1.5,1 0.4,0.4 0.8,0.9 1,1.5 0.2,0.6 0.4,1.3 0.4,2.1 0,0.2 0,0.4 0,0.5 0,0.1 -0.1,0.3 -0.1,0.3 0,0.1 -0.1,0.1 -0.2,0.2 -0.1,0.1 -0.2,0 -0.3,0 h -6.5 z m 4.6,-1.7 c 0,-0.3 0,-0.6 -0.1,-0.9 -0.1,-0.3 -0.2,-0.5 -0.4,-0.7 -0.2,-0.2 -0.4,-0.4 -0.7,-0.5 -0.3,-0.1 -0.6,-0.2 -1,-0.2 -0.7,0 -1.2,0.2 -1.6,0.6 -0.4,0.4 -0.6,1 -0.8,1.7 z"
   id="path52"
   style="fill:#ffffff" />
		<path
   class="st0"
   d="m 332.4,240 c -0.1,0.1 -0.2,0.2 -0.2,0.3 -0.1,0.1 -0.2,0.1 -0.3,0.1 -0.1,0 -0.3,0 -0.4,-0.1 -0.1,-0.1 -0.3,-0.1 -0.5,-0.2 -0.2,-0.1 -0.4,-0.2 -0.6,-0.2 -0.2,-0.1 -0.5,-0.1 -0.8,-0.1 -0.5,0 -0.8,0.1 -1.1,0.3 -0.3,0.2 -0.4,0.4 -0.4,0.8 0,0.2 0.1,0.4 0.2,0.5 0.1,0.1 0.3,0.3 0.6,0.4 0.2,0.1 0.5,0.2 0.8,0.3 0.3,0.1 0.6,0.2 1,0.3 0.3,0.1 0.6,0.2 1,0.4 0.3,0.1 0.6,0.3 0.8,0.6 0.2,0.2 0.4,0.5 0.6,0.8 0.1,0.3 0.2,0.7 0.2,1.1 0,0.5 -0.1,1 -0.3,1.5 -0.2,0.4 -0.5,0.8 -0.8,1.1 -0.4,0.3 -0.8,0.6 -1.4,0.8 -0.6,0.2 -1.2,0.3 -1.9,0.3 -0.4,0 -0.7,0 -1.1,-0.1 -0.4,-0.1 -0.7,-0.2 -1,-0.3 -0.3,-0.1 -0.6,-0.3 -0.9,-0.4 -0.3,-0.1 -0.5,-0.3 -0.7,-0.5 l 0.7,-1.1 c 0.1,-0.1 0.2,-0.2 0.3,-0.3 0.1,-0.1 0.3,-0.1 0.4,-0.1 0.2,0 0.3,0 0.5,0.1 0.1,0.1 0.3,0.2 0.5,0.3 0.2,0.1 0.4,0.2 0.6,0.3 0.2,0.1 0.6,0.1 0.9,0.1 0.3,0 0.5,0 0.7,-0.1 0.2,-0.1 0.4,-0.1 0.5,-0.3 0.1,-0.2 0.2,-0.2 0.3,-0.4 0.1,-0.1 0.1,-0.3 0.1,-0.4 0,-0.2 -0.1,-0.4 -0.2,-0.6 -0.2,-0.2 -0.3,-0.3 -0.6,-0.4 -0.2,-0.1 -0.5,-0.2 -0.8,-0.3 -0.3,-0.1 -0.6,-0.2 -1,-0.3 -0.3,-0.1 -0.6,-0.2 -1,-0.4 -0.3,-0.2 -0.6,-0.3 -0.8,-0.6 -0.2,-0.3 -0.4,-0.5 -0.6,-0.9 -0.2,-0.4 -0.2,-0.8 -0.2,-1.2 0,-0.4 0.1,-0.9 0.3,-1.3 0.2,-0.4 0.4,-0.8 0.8,-1.1 0.4,-0.3 0.8,-0.6 1.3,-0.7 0.5,-0.2 1.1,-0.3 1.8,-0.3 0.8,0 1.5,0.1 2.1,0.4 0.6,0.3 1.1,0.6 1.6,1 z"
   id="path54"
   style="fill:#ffffff" />
	</g>
	<g
   id="g66"
   transform="translate(-65.183475,-106.38396)"
   style="fill:#ffffff">
		<path
   class="st0"
   d="m 92.9,144.4 v 3.4 h 4.5 v 2.5 h -4.5 v 3.4 h 5.9 v 2.6 h -9.3 v -14.5 h 9.3 v 2.6 z"
   id="path58"
   style="fill:#ffffff" />
		<path
   class="st0"
   d="m 109.4,144.8 c -0.1,0.2 -0.2,0.3 -0.3,0.4 -0.1,0.1 -0.2,0.1 -0.4,0.1 -0.2,0 -0.3,0 -0.5,-0.1 -0.2,-0.1 -0.4,-0.2 -0.6,-0.3 -0.2,-0.1 -0.5,-0.2 -0.8,-0.3 -0.3,-0.1 -0.6,-0.1 -1,-0.1 -0.6,0 -1.1,0.1 -1.4,0.4 -0.3,0.3 -0.5,0.6 -0.5,1.1 0,0.3 0.1,0.5 0.3,0.7 0.2,0.2 0.4,0.4 0.7,0.5 0.3,0.1 0.6,0.3 1,0.4 0.4,0.1 0.8,0.2 1.2,0.4 0.4,0.1 0.8,0.3 1.2,0.5 0.4,0.2 0.7,0.4 1,0.7 0.3,0.3 0.5,0.7 0.7,1.1 0.2,0.4 0.3,0.9 0.3,1.5 0,0.7 -0.1,1.3 -0.3,1.9 -0.2,0.6 -0.6,1.1 -1,1.5 -0.4,0.4 -1,0.8 -1.6,1 -0.6,0.2 -1.4,0.4 -2.2,0.4 -0.4,0 -0.9,0 -1.4,-0.1 -0.5,-0.1 -0.9,-0.2 -1.4,-0.4 -0.4,-0.2 -0.8,-0.4 -1.2,-0.6 -0.4,-0.2 -0.7,-0.5 -1,-0.8 l 1,-1.6 c 0.1,-0.1 0.2,-0.2 0.3,-0.3 0.1,-0.1 0.3,-0.1 0.4,-0.1 0.2,0 0.4,0.1 0.6,0.2 0.2,0.1 0.4,0.3 0.7,0.4 0.3,0.2 0.5,0.3 0.9,0.4 0.3,0.1 0.7,0.2 1.2,0.2 0.6,0 1.1,-0.1 1.4,-0.4 0.3,-0.3 0.5,-0.7 0.5,-1.3 0,-0.3 -0.1,-0.6 -0.3,-0.8 -0.2,-0.2 -0.4,-0.4 -0.7,-0.5 -0.3,-0.1 -0.6,-0.3 -1,-0.4 -0.4,-0.1 -0.8,-0.2 -1.2,-0.4 -0.4,-0.1 -0.8,-0.3 -1.2,-0.5 -0.4,-0.2 -0.7,-0.4 -1,-0.7 -0.3,-0.3 -0.5,-0.7 -0.7,-1.2 -0.2,-0.5 -0.3,-1 -0.3,-1.7 0,-0.5 0.1,-1.1 0.3,-1.6 0.2,-0.5 0.5,-1 1,-1.4 0.4,-0.4 0.9,-0.7 1.6,-1 0.6,-0.2 1.3,-0.4 2.1,-0.4 0.4,0 0.9,0 1.3,0.1 0.4,0.1 0.8,0.2 1.2,0.3 0.4,0.1 0.7,0.3 1.1,0.5 0.3,0.2 0.6,0.4 0.9,0.6 z"
   id="path60"
   style="fill:#ffffff" />
		<path
   class="st0"
   d="m 123.3,144.5 h -4.1 v 11.8 h -3.4 v -11.8 h -4.1 v -2.7 h 11.5 v 2.7 z"
   id="path62"
   style="fill:#ffffff" />
		<path
   class="st0"
   d="m 138.3,149.1 c 0,1 -0.2,2 -0.5,2.9 -0.4,0.9 -0.9,1.6 -1.5,2.3 -0.6,0.7 -1.4,1.1 -2.4,1.5 -0.9,0.4 -1.9,0.5 -3.1,0.5 h -5.6 v -14.5 h 5.6 c 1.1,0 2.1,0.2 3.1,0.5 1,0.3 1.7,0.9 2.4,1.5 0.7,0.6 1.2,1.4 1.5,2.3 0.3,1 0.5,1.9 0.5,3 z m -3.5,0 c 0,-0.7 -0.1,-1.4 -0.3,-1.9 -0.2,-0.5 -0.5,-1.1 -0.8,-1.5 -0.3,-0.4 -0.8,-0.7 -1.3,-0.9 -0.5,-0.2 -1.1,-0.3 -1.7,-0.3 h -2.2 v 9.3 h 2.2 c 0.6,0 1.2,-0.1 1.7,-0.3 0.5,-0.2 0.9,-0.5 1.3,-0.9 0.3,-0.4 0.6,-0.9 0.8,-1.5 0.2,-0.6 0.3,-1.3 0.3,-2 z"
   id="path64"
   style="fill:#ffffff" />
	</g>
	<g
   id="g76"
   transform="translate(-65.183475,-106.38396)"
   style="fill:#ffffff">
		<path
   class="st0"
   d="m 272,153.5 c 0.3,0 0.6,0.1 0.8,0.3 0.2,0.2 0.3,0.4 0.3,0.7 v 1.8 h -10.2 v -1 c 0,-0.2 0,-0.4 0.1,-0.6 0.1,-0.2 0.2,-0.4 0.4,-0.6 l 4.2,-4.2 c 0.4,-0.4 0.7,-0.7 0.9,-1 0.2,-0.3 0.5,-0.6 0.7,-1 0.2,-0.3 0.3,-0.6 0.4,-0.9 0.1,-0.3 0.1,-0.6 0.1,-1 0,-0.6 -0.1,-1 -0.4,-1.3 -0.3,-0.3 -0.7,-0.5 -1.3,-0.5 -0.5,0 -0.8,0.1 -1.2,0.4 -0.3,0.2 -0.5,0.5 -0.6,0.9 -0.1,0.4 -0.3,0.6 -0.5,0.7 -0.2,0.1 -0.5,0.1 -1,0.1 l -1.6,-0.3 c 0.1,-0.7 0.3,-1.3 0.6,-1.9 0.3,-0.5 0.7,-1 1.1,-1.3 0.4,-0.4 1,-0.6 1.5,-0.8 0.5,-0.2 1.2,-0.3 1.9,-0.3 0.7,0 1.4,0.1 1.9,0.3 0.6,0.2 1.1,0.5 1.5,0.9 0.4,0.4 0.7,0.8 0.9,1.3 0.2,0.5 0.3,1.1 0.3,1.7 0,0.5 -0.1,1 -0.2,1.5 -0.1,0.5 -0.4,0.9 -0.6,1.3 -0.2,0.4 -0.6,0.8 -0.9,1.2 -0.3,0.4 -0.7,0.8 -1.1,1.2 l -2.8,2.9 c 0.4,-0.1 0.7,-0.2 1.1,-0.3 0.4,-0.1 0.7,-0.1 1,-0.1 h 2.7 z"
   id="path68"
   style="fill:#ffffff" />
		<path
   class="st0"
   d="m 285.5,149.1 c 0,1.3 -0.1,2.4 -0.4,3.3 -0.3,0.9 -0.6,1.7 -1.1,2.3 -0.5,0.6 -1,1.1 -1.7,1.4 -0.7,0.3 -1.4,0.4 -2.1,0.4 -0.7,0 -1.5,-0.1 -2.1,-0.4 -0.7,-0.3 -1.2,-0.8 -1.7,-1.4 -0.5,-0.6 -0.8,-1.4 -1.1,-2.3 -0.3,-0.9 -0.4,-2 -0.4,-3.3 0,-1.3 0.1,-2.4 0.4,-3.3 0.3,-0.9 0.6,-1.7 1.1,-2.3 0.5,-0.6 1,-1.1 1.7,-1.4 0.7,-0.3 1.4,-0.4 2.1,-0.4 0.7,0 1.5,0.1 2.1,0.4 0.6,0.3 1.2,0.7 1.7,1.4 0.5,0.6 0.9,1.4 1.1,2.3 0.2,0.9 0.4,2 0.4,3.3 z m -3.1,0 c 0,-1 -0.1,-1.8 -0.2,-2.5 -0.1,-0.6 -0.3,-1.1 -0.5,-1.5 -0.2,-0.4 -0.4,-0.6 -0.7,-0.7 -0.3,-0.1 -0.5,-0.2 -0.8,-0.2 -0.3,0 -0.5,0.1 -0.8,0.2 -0.3,0.1 -0.5,0.4 -0.7,0.7 -0.2,0.3 -0.4,0.9 -0.5,1.5 -0.1,0.6 -0.2,1.5 -0.2,2.5 0,1 0.1,1.8 0.2,2.5 0.1,0.6 0.3,1.1 0.5,1.5 0.2,0.4 0.4,0.6 0.7,0.8 0.3,0.1 0.5,0.2 0.8,0.2 0.3,0 0.5,-0.1 0.8,-0.2 0.3,-0.1 0.5,-0.4 0.7,-0.8 0.2,-0.4 0.4,-0.9 0.5,-1.5 0.1,-0.7 0.2,-1.5 0.2,-2.5 z"
   id="path70"
   style="fill:#ffffff" />
		<path
   class="st0"
   d="m 295.9,153.5 c 0.3,0 0.6,0.1 0.8,0.3 0.2,0.2 0.3,0.4 0.3,0.7 v 1.8 h -10.2 v -1 c 0,-0.2 0,-0.4 0.1,-0.6 0.1,-0.2 0.2,-0.4 0.4,-0.6 l 4.2,-4.2 c 0.4,-0.4 0.7,-0.7 0.9,-1 0.2,-0.3 0.5,-0.6 0.7,-1 0.2,-0.3 0.3,-0.6 0.4,-0.9 0.1,-0.3 0.1,-0.6 0.1,-1 0,-0.6 -0.1,-1 -0.4,-1.3 -0.3,-0.3 -0.7,-0.5 -1.3,-0.5 -0.5,0 -0.8,0.1 -1.2,0.4 -0.3,0.2 -0.5,0.5 -0.6,0.9 -0.1,0.4 -0.3,0.6 -0.5,0.7 -0.2,0.1 -0.5,0.1 -1,0.1 L 287,146 c 0.1,-0.7 0.3,-1.3 0.6,-1.9 0.3,-0.5 0.7,-1 1.1,-1.3 0.4,-0.4 1,-0.6 1.5,-0.8 0.5,-0.2 1.2,-0.3 1.9,-0.3 0.7,0 1.4,0.1 1.9,0.3 0.6,0.2 1.1,0.5 1.5,0.9 0.4,0.4 0.7,0.8 0.9,1.3 0.2,0.5 0.3,1.1 0.3,1.7 0,0.5 -0.1,1 -0.2,1.5 -0.1,0.5 -0.4,0.9 -0.6,1.3 -0.2,0.4 -0.6,0.8 -0.9,1.2 -0.3,0.4 -0.7,0.8 -1.1,1.2 l -2.8,2.9 c 0.4,-0.1 0.7,-0.2 1.1,-0.3 0.4,-0.1 0.7,-0.1 1,-0.1 h 2.7 z"
   id="path72"
   style="fill:#ffffff" />
		<path
   class="st0"
   d="m 307.8,153.5 c 0.3,0 0.6,0.1 0.8,0.3 0.2,0.2 0.3,0.4 0.3,0.7 v 1.8 h -10.2 v -1 c 0,-0.2 0,-0.4 0.1,-0.6 0.1,-0.2 0.2,-0.4 0.4,-0.6 l 4.2,-4.2 c 0.4,-0.4 0.7,-0.7 0.9,-1 0.2,-0.3 0.5,-0.6 0.7,-1 0.2,-0.3 0.3,-0.6 0.4,-0.9 0.1,-0.3 0.1,-0.6 0.1,-1 0,-0.6 -0.1,-1 -0.4,-1.3 -0.3,-0.3 -0.7,-0.5 -1.3,-0.5 -0.5,0 -0.8,0.1 -1.2,0.4 -0.3,0.2 -0.5,0.5 -0.6,0.9 -0.1,0.4 -0.3,0.6 -0.5,0.7 -0.2,0.1 -0.5,0.1 -1,0.1 l -1.6,-0.3 c 0.1,-0.7 0.3,-1.3 0.6,-1.9 0.3,-0.5 0.7,-1 1.1,-1.3 0.4,-0.4 1,-0.6 1.5,-0.8 0.5,-0.2 1.2,-0.3 1.9,-0.3 0.7,0 1.4,0.1 1.9,0.3 0.6,0.2 1.1,0.5 1.5,0.9 0.4,0.4 0.7,0.8 0.9,1.3 0.2,0.5 0.3,1.1 0.3,1.7 0,0.5 -0.1,1 -0.2,1.5 -0.1,0.5 -0.4,0.9 -0.6,1.3 -0.2,0.4 -0.6,0.8 -0.9,1.2 -0.3,0.4 -0.7,0.8 -1.1,1.2 L 303,154 c 0.4,-0.1 0.7,-0.2 1.1,-0.3 0.4,-0.1 0.7,-0.1 1,-0.1 h 2.7 z"
   id="path74"
   style="fill:#ffffff" />
	</g>
	<path
   class="st0"
   d="m 178.01652,33.116039 c 0,16.4 -13.3,29.7 -29.7,29.7 -4.8,0 -9.6,-1.2 -13.8,-3.4 -4.2,2.2 -9,3.4 -13.8,3.4 -16.4,0 -29.699995,-13.3 -29.699995,-29.7 0,-16.4 13.299995,-29.7000001 29.699995,-29.7000001 4.8,0 9.6,1.2 13.8,3.4 4.2,-2.2 8.9,-3.4 13.8,-3.4 16.4,0 29.7,13.4000001 29.7,29.7000001 z m -55.1,2.1 c 0.7,8.3 5.4,15.8 12.7,20 3.8,2.2 8.2,3.4 12.8,3.4 14.1,0 25.5,-11.4 25.5,-25.5 0,-14.1 -11.5,-25.5000001 -25.6,-25.5000001 -3.3,0 -6.6,0.6 -9.7,1.9 7.3,5.6000001 11.7,14.3000001 11.7,23.6000001 v 2.1 z m -4.2,-2.1 v -2.1 h 27.5 c -0.7,-8.3 -5.4,-15.8 -12.7,-20 -3.9,-2.2000001 -8.3,-3.4000001 -12.8,-3.4000001 -14.1,0 -25.499995,11.4000001 -25.499995,25.5000001 0,14.1 11.399995,25.5 25.499995,25.5 3.3,0 6.6,-0.6 9.7,-1.9 -7.3,-5.5 -11.7,-14.3 -11.7,-23.6 z"
   id="path78"
   style="fill:#ffffff;fill-opacity:1" />
	
		<rect
   x="-41.921936"
   y="214.89633"
   transform="rotate(-44.94328)"
   class="st0"
   width="32.299706"
   height="2.8999736"
   id="rect80"
   style="fill:#ffffff;stroke-width:0.999991" />
	
		<rect
   x="-27.447868"
   y="200.17896"
   transform="rotate(-45)"
   class="st0"
   width="2.8999722"
   height="32.29969"
   id="rect82"
   style="fill:#ffffff;stroke-width:0.99999" />
	<rect
   x="196.41653"
   y="59.216045"
   class="st0"
   width="48.799999"
   height="2.7"
   id="rect84"
   style="fill:#ffffff" />
	<rect
   x="23.816525"
   y="59.216045"
   class="st0"
   width="48.799999"
   height="2.7"
   id="rect86"
   style="fill:#ffffff" />
</g>















</svg>
