<?xml version="1.0" encoding="UTF-8" standalone="no"?>
<!-- Generator: Adobe Illustrator 26.3.1, SVG Export Plug-In . SVG Version: 6.00 Build 0)  -->

<svg
   version="1.1"
   id="レイヤー_1"
   x="0px"
   y="0px"
   viewBox="0 0 400 400"
   style="enable-background:new 0 0 400 400;"
   xml:space="preserve"
   sodipodi:docname="ait-wd-logo_white.svg"
   inkscape:version="1.1.2 (b8e25be833, 2022-02-05)"
   xmlns:inkscape="http://www.inkscape.org/namespaces/inkscape"
   xmlns:sodipodi="http://sodipodi.sourceforge.net/DTD/sodipodi-0.dtd"
   xmlns="http://www.w3.org/2000/svg"
   xmlns:svg="http://www.w3.org/2000/svg"><defs
   id="defs122" /><sodipodi:namedview
   id="namedview120"
   pagecolor="#ffffff"
   bordercolor="#666666"
   borderopacity="1.0"
   inkscape:pageshadow="2"
   inkscape:pageopacity="0.0"
   inkscape:pagecheckerboard="0"
   showgrid="false"
   inkscape:zoom="2.0575"
   inkscape:cx="200"
   inkscape:cy="200.24301"
   inkscape:window-width="1920"
   inkscape:window-height="1009"
   inkscape:window-x="-8"
   inkscape:window-y="-8"
   inkscape:window-maximized="1"
   inkscape:current-layer="g56" />
<style
   type="text/css"
   id="style2">
	.st0{fill:#ffffff;}
</style>
<g
   id="Row_03_x2C__03">
	<g
   id="g16"
   style="fill:#ffffff;fill-opacity:1">
		<path
   class="st0"
   d="M101.4,213.1l2.4-0.4l10.4-29.7h7l10.3,29.7l2.4,0.4v4.1h-11.6v-4.1l2.4-0.4l-1.5-4.7h-11.1l-1.5,4.7l2.4,0.4    v4.1h-11.6V213.1z M113.8,203h7.8l-3.8-12h-0.1L113.8,203z"
   id="path4"
   style="fill:#ffffff;fill-opacity:1" />
		<path
   class="st0"
   d="M140.9,187.2v-4.1H155v4.1l-3.7,0.7v24.5l3.7,0.7v4.1h-14.1v-4.1l3.7-0.7v-24.5L140.9,187.2z"
   id="path6"
   style="fill:#ffffff;fill-opacity:1" />
		<path
   class="st0"
   d="M192.4,183.1v9.1h-5.2l-0.3-3.8h-6.3v24l3.7,0.7v4.1h-14.2v-4.1l3.7-0.7v-24h-6.3l-0.3,3.8H162v-9.1H192.4z"
   id="path8"
   style="fill:#ffffff;fill-opacity:1" />
		<path
   class="st0"
   d="M208.4,205.3h-13.2V200h13.2V205.3z"
   id="path10"
   style="fill:#ffffff;fill-opacity:1" />
		<path
   class="st0"
   d="M258.7,187.2l-2.8,0.4l-6.9,29.6h-6.4l-6.3-22.5h-0.1l-6.3,22.5h-6.4l-7-29.6l-2.8-0.4v-4.1h12.6v4.1    l-3.1,0.5l3.9,18.7l0.1,0l6.4-23.4h5l6.4,23.4l0.1,0l3.9-18.7l-3.1-0.5v-4.1h12.5V187.2z"
   id="path12"
   style="fill:#ffffff;fill-opacity:1" />
		<path
   class="st0"
   d="M280.9,183.1c4.2,0,7.6,1.3,10.3,4s4.1,6.1,4.1,10.3v5.6c0,4.2-1.4,7.6-4.1,10.3s-6.1,4-10.3,4h-15.4v-4.1    l3.6-0.7v-24.5l-3.6-0.7v-4.1h3.6H280.9z M276,188.4V212h4.5c2.5,0,4.4-0.8,5.8-2.5s2.1-3.8,2.1-6.5v-5.7c0-2.6-0.7-4.8-2.1-6.4    c-1.4-1.7-3.3-2.5-5.8-2.5H276z"
   id="path14"
   style="fill:#ffffff;fill-opacity:1" />
	</g>
	<g
   id="g56">
		<path
   class="st0"
   d="M66.9,248.6v-10.8h1.8c0.4,0,0.6,0.2,0.7,0.5l0.2,0.7c0.2-0.2,0.4-0.4,0.6-0.5c0.2-0.2,0.4-0.3,0.6-0.4    s0.5-0.2,0.8-0.3c0.3-0.1,0.6-0.1,0.9-0.1c0.7,0,1.2,0.2,1.6,0.5s0.8,0.8,1,1.4c0.2-0.3,0.4-0.6,0.6-0.9c0.3-0.2,0.5-0.4,0.8-0.6    c0.3-0.2,0.6-0.3,1-0.3c0.3-0.1,0.7-0.1,1-0.1c0.6,0,1.1,0.1,1.6,0.3c0.5,0.2,0.9,0.5,1.2,0.8s0.6,0.8,0.7,1.3    c0.2,0.5,0.3,1.1,0.3,1.7v6.9h-2.9v-6.9c0-1.3-0.5-1.9-1.6-1.9c-0.2,0-0.5,0-0.7,0.1c-0.2,0.1-0.4,0.2-0.5,0.4    c-0.2,0.2-0.3,0.4-0.4,0.6c-0.1,0.2-0.1,0.5-0.1,0.8v6.9h-2.9v-6.9c0-0.7-0.1-1.2-0.4-1.5c-0.3-0.3-0.7-0.4-1.2-0.4    c-0.3,0-0.7,0.1-1,0.2c-0.3,0.2-0.6,0.4-0.8,0.7v7.9H66.9z"
   id="path18"
   style="fill:#ffffff;fill-opacity:1" />
		<path
   class="st0"
   d="M86.7,239.3c0.6-0.6,1.3-1,2.1-1.3s1.6-0.4,2.5-0.4c0.6,0,1.2,0.1,1.7,0.3c0.5,0.2,0.9,0.5,1.3,0.9    c0.4,0.4,0.6,0.8,0.8,1.3s0.3,1.1,0.3,1.7v6.8h-1.3c-0.3,0-0.5,0-0.6-0.1c-0.1-0.1-0.3-0.2-0.4-0.5l-0.2-0.7    c-0.3,0.2-0.5,0.4-0.8,0.6c-0.3,0.2-0.5,0.3-0.8,0.5c-0.3,0.1-0.6,0.2-0.9,0.3c-0.3,0.1-0.7,0.1-1,0.1c-0.5,0-0.9-0.1-1.3-0.2    c-0.4-0.1-0.7-0.3-1-0.6c-0.3-0.2-0.5-0.6-0.7-0.9s-0.2-0.8-0.2-1.3c0-0.4,0.1-0.8,0.3-1.2c0.2-0.4,0.6-0.8,1-1.1    c0.5-0.3,1.2-0.6,2-0.8c0.8-0.2,1.9-0.3,3.1-0.4v-0.6c0-0.7-0.1-1.2-0.4-1.5c-0.3-0.3-0.7-0.5-1.2-0.5c-0.4,0-0.7,0-1,0.1    c-0.3,0.1-0.5,0.2-0.7,0.3c-0.2,0.1-0.4,0.2-0.6,0.3c-0.2,0.1-0.4,0.1-0.6,0.1c-0.2,0-0.4-0.1-0.5-0.2c-0.1-0.1-0.2-0.2-0.3-0.4    L86.7,239.3z M92.6,244.1c-0.7,0-1.3,0.1-1.8,0.2c-0.5,0.1-0.8,0.2-1.1,0.3c-0.3,0.1-0.5,0.3-0.6,0.5c-0.1,0.2-0.2,0.4-0.2,0.6    c0,0.4,0.1,0.7,0.4,0.9c0.2,0.2,0.6,0.3,1,0.3c0.5,0,0.9-0.1,1.3-0.3c0.4-0.2,0.7-0.4,1.1-0.8V244.1z"
   id="path20"
   style="fill:#ffffff;fill-opacity:1" />
		<path
   class="st0"
   d="M103,233v8.9h0.5c0.2,0,0.3,0,0.4-0.1c0.1-0.1,0.2-0.1,0.3-0.3l2.4-3.2c0.1-0.2,0.3-0.3,0.4-0.4    s0.3-0.1,0.6-0.1h2.6l-3.1,3.9c-0.2,0.3-0.5,0.6-0.9,0.8c0.2,0.1,0.3,0.2,0.4,0.4c0.1,0.1,0.2,0.3,0.3,0.5l3.3,5.2h-2.6    c-0.2,0-0.4,0-0.6-0.1s-0.3-0.2-0.4-0.4l-2.4-4c-0.1-0.2-0.2-0.3-0.3-0.3c-0.1,0-0.3-0.1-0.5-0.1H103v4.9h-2.9V233H103z"
   id="path22"
   style="fill:#ffffff;fill-opacity:1" />
		<path
   class="st0"
   d="M115.8,243.7c0.1,1,0.4,1.8,0.9,2.2c0.5,0.5,1.1,0.7,1.9,0.7c0.4,0,0.7,0,1-0.1c0.3-0.1,0.5-0.2,0.8-0.3    c0.2-0.1,0.4-0.2,0.6-0.3s0.4-0.1,0.5-0.1c0.2,0,0.4,0.1,0.5,0.3l0.8,1c-0.3,0.4-0.6,0.7-1,0.9c-0.4,0.2-0.8,0.4-1.2,0.6    c-0.4,0.1-0.8,0.2-1.2,0.3c-0.4,0.1-0.8,0.1-1.2,0.1c-0.8,0-1.5-0.1-2.1-0.4c-0.7-0.2-1.2-0.6-1.7-1.1c-0.5-0.5-0.9-1.1-1.1-1.8    c-0.3-0.7-0.4-1.6-0.4-2.5c0-0.7,0.1-1.4,0.4-2.1c0.2-0.7,0.6-1.2,1-1.7c0.5-0.5,1-0.9,1.7-1.1s1.4-0.4,2.2-0.4    c0.7,0,1.3,0.1,1.9,0.3c0.6,0.2,1.1,0.5,1.5,1c0.4,0.4,0.8,0.9,1,1.5s0.4,1.3,0.4,2.1c0,0.2,0,0.4,0,0.5c0,0.1-0.1,0.3-0.1,0.3    c0,0.1-0.1,0.1-0.2,0.2s-0.2,0-0.3,0H115.8z M120.4,242c0-0.3,0-0.6-0.1-0.9c-0.1-0.3-0.2-0.5-0.4-0.7c-0.2-0.2-0.4-0.4-0.7-0.5    c-0.3-0.1-0.6-0.2-1-0.2c-0.7,0-1.2,0.2-1.6,0.6c-0.4,0.4-0.6,1-0.8,1.7H120.4z"
   id="path24"
   style="fill:#ffffff;fill-opacity:1" />
		<path
   class="st0"
   d="M134.3,239.3c0.6-0.6,1.3-1,2.1-1.3s1.6-0.4,2.5-0.4c0.6,0,1.2,0.1,1.7,0.3c0.5,0.2,0.9,0.5,1.3,0.9    c0.4,0.4,0.6,0.8,0.8,1.3s0.3,1.1,0.3,1.7v6.8h-1.3c-0.3,0-0.5,0-0.6-0.1c-0.1-0.1-0.3-0.2-0.4-0.5l-0.2-0.7    c-0.3,0.2-0.5,0.4-0.8,0.6c-0.3,0.2-0.5,0.3-0.8,0.5c-0.3,0.1-0.6,0.2-0.9,0.3c-0.3,0.1-0.7,0.1-1,0.1c-0.5,0-0.9-0.1-1.3-0.2    c-0.4-0.1-0.7-0.3-1-0.6c-0.3-0.2-0.5-0.6-0.7-0.9s-0.2-0.8-0.2-1.3c0-0.4,0.1-0.8,0.3-1.2c0.2-0.4,0.6-0.8,1-1.1    c0.5-0.3,1.2-0.6,2-0.8c0.8-0.2,1.9-0.3,3.1-0.4v-0.6c0-0.7-0.1-1.2-0.4-1.5c-0.3-0.3-0.7-0.5-1.2-0.5c-0.4,0-0.7,0-1,0.1    c-0.3,0.1-0.5,0.2-0.7,0.3c-0.2,0.1-0.4,0.2-0.6,0.3c-0.2,0.1-0.4,0.1-0.6,0.1c-0.2,0-0.4-0.1-0.5-0.2c-0.1-0.1-0.2-0.2-0.3-0.4    L134.3,239.3z M140.2,244.1c-0.7,0-1.3,0.1-1.8,0.2c-0.5,0.1-0.8,0.2-1.1,0.3c-0.3,0.1-0.5,0.3-0.6,0.5c-0.1,0.2-0.2,0.4-0.2,0.6    c0,0.4,0.1,0.7,0.4,0.9c0.2,0.2,0.6,0.3,1,0.3c0.5,0,0.9-0.1,1.3-0.3c0.4-0.2,0.7-0.4,1.1-0.8V244.1z"
   id="path26"
   style="fill:#ffffff;fill-opacity:1" />
		<path
   class="st0"
   d="M157.4,243.7c0.1,1,0.4,1.8,0.9,2.2c0.5,0.5,1.1,0.7,1.9,0.7c0.4,0,0.7,0,1-0.1c0.3-0.1,0.5-0.2,0.8-0.3    c0.2-0.1,0.4-0.2,0.6-0.3s0.4-0.1,0.5-0.1c0.2,0,0.4,0.1,0.5,0.3l0.8,1c-0.3,0.4-0.6,0.7-1,0.9c-0.4,0.2-0.8,0.4-1.2,0.6    c-0.4,0.1-0.8,0.2-1.2,0.3c-0.4,0.1-0.8,0.1-1.2,0.1c-0.8,0-1.5-0.1-2.1-0.4c-0.7-0.2-1.2-0.6-1.7-1.1c-0.5-0.5-0.9-1.1-1.1-1.8    c-0.3-0.7-0.4-1.6-0.4-2.5c0-0.7,0.1-1.4,0.4-2.1c0.2-0.7,0.6-1.2,1-1.7c0.5-0.5,1-0.9,1.7-1.1s1.4-0.4,2.2-0.4    c0.7,0,1.3,0.1,1.9,0.3c0.6,0.2,1.1,0.5,1.5,1c0.4,0.4,0.8,0.9,1,1.5s0.4,1.3,0.4,2.1c0,0.2,0,0.4,0,0.5c0,0.1-0.1,0.3-0.1,0.3    c0,0.1-0.1,0.1-0.2,0.2s-0.2,0-0.3,0H157.4z M162,242c0-0.3,0-0.6-0.1-0.9c-0.1-0.3-0.2-0.5-0.4-0.7c-0.2-0.2-0.4-0.4-0.7-0.5    c-0.3-0.1-0.6-0.2-1-0.2c-0.7,0-1.2,0.2-1.6,0.6c-0.4,0.4-0.6,1-0.8,1.7H162z"
   id="path28"
   style="fill:#ffffff;fill-opacity:1" />
		<path
   class="st0"
   d="M178.6,248.6h-2.8c-0.2,0-0.4-0.1-0.5-0.2c-0.1-0.1-0.2-0.2-0.3-0.4l-2.1-3.6c-0.1,0.2-0.2,0.4-0.3,0.6    l-1.8,2.9c-0.1,0.1-0.2,0.3-0.3,0.4c-0.1,0.1-0.3,0.2-0.5,0.2h-2.6l3.7-5.6l-3.5-5.2h2.8c0.2,0,0.4,0,0.5,0.1    c0.1,0.1,0.2,0.1,0.3,0.3l2.1,3.4c0-0.1,0.1-0.2,0.1-0.4c0.1-0.1,0.1-0.2,0.2-0.4l1.6-2.7c0.2-0.3,0.4-0.4,0.7-0.4h2.7l-3.5,5.1    L178.6,248.6z"
   id="path30"
   style="fill:#ffffff;fill-opacity:1" />
		<path
   class="st0"
   d="M189.7,240.2c-0.1,0.1-0.2,0.2-0.3,0.3s-0.2,0.1-0.4,0.1c-0.1,0-0.3,0-0.4-0.1c-0.1-0.1-0.3-0.2-0.4-0.3    s-0.4-0.2-0.6-0.3c-0.2-0.1-0.5-0.1-0.9-0.1c-0.4,0-0.8,0.1-1.1,0.2c-0.3,0.2-0.6,0.4-0.8,0.7s-0.4,0.7-0.5,1.1s-0.2,0.9-0.2,1.4    c0,1.1,0.2,2,0.7,2.5c0.4,0.6,1.1,0.9,1.8,0.9c0.3,0,0.5,0,0.7-0.1c0.2,0,0.4-0.1,0.5-0.2c0.1-0.1,0.3-0.1,0.4-0.2    s0.2-0.2,0.3-0.2c0.1-0.1,0.2-0.1,0.3-0.2c0.1,0,0.2-0.1,0.3-0.1c0.2,0,0.4,0.1,0.5,0.3l0.8,1c-0.3,0.4-0.6,0.7-1,0.9    c-0.4,0.2-0.7,0.4-1.1,0.6c-0.4,0.1-0.8,0.2-1.1,0.3c-0.4,0.1-0.8,0.1-1.1,0.1c-0.7,0-1.3-0.1-1.9-0.4c-0.6-0.2-1.1-0.6-1.6-1.1    c-0.4-0.5-0.8-1.1-1.1-1.8c-0.3-0.7-0.4-1.5-0.4-2.4c0-0.8,0.1-1.5,0.3-2.2c0.2-0.7,0.6-1.3,1-1.8c0.4-0.5,1-0.9,1.7-1.2    s1.4-0.4,2.3-0.4c0.8,0,1.6,0.1,2.2,0.4c0.6,0.3,1.2,0.7,1.7,1.2L189.7,240.2z"
   id="path32"
   style="fill:#ffffff;fill-opacity:1" />
		<path
   class="st0"
   d="M197.5,234.7c0,0.2,0,0.5-0.1,0.7s-0.2,0.4-0.4,0.6c-0.2,0.2-0.4,0.3-0.6,0.4s-0.5,0.1-0.7,0.1    c-0.2,0-0.5,0-0.7-0.1c-0.2-0.1-0.4-0.2-0.6-0.4s-0.3-0.3-0.4-0.6c-0.1-0.2-0.1-0.4-0.1-0.7c0-0.2,0-0.5,0.1-0.7    c0.1-0.2,0.2-0.4,0.4-0.6s0.3-0.3,0.6-0.4c0.2-0.1,0.4-0.1,0.7-0.1c0.3,0,0.5,0,0.7,0.1s0.4,0.2,0.6,0.4c0.2,0.2,0.3,0.3,0.4,0.6    C197.5,234.3,197.5,234.5,197.5,234.7z M197.2,237.8v10.8h-2.9v-10.8H197.2z"
   id="path34"
   style="fill:#ffffff;fill-opacity:1" />
		<path
   class="st0"
   d="M213.2,248.6h-2.9v-8.7h-4.8v5.6c0,0.3,0.1,0.5,0.2,0.7c0.1,0.2,0.3,0.3,0.6,0.3c0.1,0,0.3,0,0.4,0    c0.1,0,0.2-0.1,0.3-0.1c0.1,0,0.1-0.1,0.2-0.1c0.1,0,0.1,0,0.2,0c0.1,0,0.2,0,0.2,0.1c0.1,0,0.1,0.1,0.2,0.2l0.9,1.4    c-0.4,0.3-0.8,0.6-1.4,0.7s-1,0.2-1.6,0.2c-0.5,0-0.9-0.1-1.3-0.2c-0.4-0.1-0.7-0.3-1-0.6c-0.3-0.3-0.5-0.6-0.6-1    c-0.1-0.4-0.2-0.8-0.2-1.3v-5.8h-1c-0.2,0-0.3,0-0.4-0.1c-0.1-0.1-0.2-0.2-0.2-0.4v-1.1l1.7-0.3l0.6-2.8c0.1-0.3,0.3-0.5,0.6-0.5    h1.5v3.3h7.7V248.6z M213.6,234.7c0,0.2,0,0.5-0.1,0.7c-0.1,0.2-0.2,0.4-0.4,0.6s-0.4,0.3-0.6,0.4c-0.2,0.1-0.5,0.1-0.7,0.1    c-0.2,0-0.5,0-0.7-0.1c-0.2-0.1-0.4-0.2-0.6-0.4c-0.2-0.2-0.3-0.3-0.4-0.6c-0.1-0.2-0.1-0.4-0.1-0.7c0-0.2,0-0.5,0.1-0.7    c0.1-0.2,0.2-0.4,0.4-0.6c0.2-0.2,0.3-0.3,0.6-0.4c0.2-0.1,0.4-0.1,0.7-0.1c0.3,0,0.5,0,0.7,0.1c0.2,0.1,0.4,0.2,0.6,0.4    c0.2,0.2,0.3,0.3,0.4,0.6C213.6,234.2,213.6,234.5,213.6,234.7z"
   id="path36"
   style="fill:#ffffff;fill-opacity:1" />
		<path
   class="st0"
   d="M220.7,239.1c0.2-0.2,0.4-0.4,0.7-0.6c0.2-0.2,0.5-0.3,0.7-0.5s0.5-0.2,0.9-0.3c0.3-0.1,0.6-0.1,1-0.1    c0.6,0,1.1,0.1,1.6,0.3c0.5,0.2,0.8,0.5,1.2,0.9c0.3,0.4,0.5,0.8,0.7,1.3s0.2,1.1,0.2,1.7v6.9h-2.9v-6.9c0-0.6-0.1-1.1-0.4-1.4    c-0.3-0.3-0.7-0.5-1.2-0.5c-0.4,0-0.8,0.1-1.1,0.3c-0.4,0.2-0.7,0.4-1,0.7v7.8H218v-10.8h1.8c0.4,0,0.6,0.2,0.7,0.5L220.7,239.1z"
   id="path38"
   style="fill:#ffffff;fill-opacity:1" />
		<path
   class="st0"
   d="M241.9,238.2v1.1c0,0.2,0,0.3-0.1,0.4c-0.1,0.1-0.3,0.2-0.5,0.2l-0.9,0.2c0.1,0.3,0.2,0.7,0.2,1.1    c0,0.5-0.1,1-0.3,1.5c-0.2,0.4-0.5,0.8-0.9,1.1c-0.4,0.3-0.8,0.5-1.4,0.7c-0.5,0.2-1.1,0.2-1.7,0.2c-0.4,0-0.7,0-1.1-0.1    c-0.3,0.2-0.4,0.4-0.4,0.6c0,0.2,0.1,0.3,0.3,0.4s0.5,0.2,0.8,0.2c0.3,0,0.7,0.1,1.1,0.1c0.4,0,0.8,0,1.3,0.1s0.9,0.1,1.3,0.2    c0.4,0.1,0.8,0.2,1.1,0.4c0.3,0.2,0.6,0.5,0.8,0.8s0.3,0.8,0.3,1.3c0,0.5-0.1,1-0.4,1.4s-0.6,0.9-1,1.2s-1,0.6-1.7,0.9    c-0.7,0.2-1.4,0.3-2.2,0.3c-0.8,0-1.6-0.1-2.2-0.2c-0.6-0.2-1.1-0.4-1.5-0.6c-0.4-0.3-0.7-0.6-0.9-0.9s-0.3-0.7-0.3-1.1    c0-0.5,0.1-0.9,0.4-1.2s0.7-0.6,1.2-0.8c-0.3-0.2-0.5-0.4-0.7-0.6c-0.2-0.2-0.2-0.6-0.2-1c0-0.3,0.1-0.7,0.4-1    c0.2-0.4,0.6-0.7,1.1-0.9c-0.6-0.3-1-0.7-1.3-1.2s-0.5-1.1-0.5-1.7c0-0.5,0.1-1,0.3-1.5c0.2-0.4,0.5-0.8,0.9-1.1    c0.4-0.3,0.9-0.5,1.4-0.7c0.5-0.2,1.1-0.2,1.7-0.2c0.9,0,1.7,0.2,2.4,0.5H241.9z M239,249.1c0-0.2-0.1-0.3-0.2-0.5    c-0.1-0.1-0.3-0.2-0.5-0.3c-0.2-0.1-0.4-0.1-0.7-0.2c-0.3,0-0.6-0.1-0.9-0.1c-0.3,0-0.6,0-1,0c-0.3,0-0.7,0-1-0.1    c-0.2,0.1-0.4,0.3-0.6,0.5c-0.2,0.2-0.2,0.4-0.2,0.7c0,0.2,0,0.3,0.1,0.5c0.1,0.1,0.2,0.3,0.4,0.4c0.2,0.1,0.4,0.2,0.7,0.2    c0.3,0.1,0.7,0.1,1.2,0.1c0.5,0,0.9,0,1.2-0.1c0.3-0.1,0.6-0.2,0.8-0.3s0.3-0.3,0.4-0.4C239,249.5,239,249.3,239,249.1z     M236.3,242.8c0.6,0,1-0.2,1.3-0.5s0.4-0.7,0.4-1.2c0-0.5-0.1-0.9-0.4-1.2c-0.3-0.3-0.7-0.4-1.3-0.4c-0.6,0-1,0.1-1.3,0.4    c-0.3,0.3-0.4,0.7-0.4,1.2c0,0.5,0.1,0.9,0.4,1.2C235.3,242.7,235.7,242.8,236.3,242.8z"
   id="path40"
   style="fill:#ffffff;fill-opacity:1" />
		<path
   class="st0"
   d="M254,248.6v-8.7l-0.8-0.1c-0.2,0-0.4-0.1-0.5-0.2c-0.1-0.1-0.2-0.3-0.2-0.5v-1.2h1.6v-0.7    c0-0.6,0.1-1.2,0.3-1.7c0.2-0.5,0.5-0.9,0.8-1.3c0.4-0.3,0.8-0.6,1.3-0.8c0.5-0.2,1.1-0.3,1.8-0.3c0.3,0,0.5,0,0.7,0    c0.2,0,0.5,0.1,0.7,0.1l-0.1,1.4c0,0.2-0.1,0.4-0.3,0.4c-0.2,0.1-0.4,0.1-0.6,0.1c-0.3,0-0.6,0-0.8,0.1c-0.2,0.1-0.4,0.2-0.6,0.3    c-0.2,0.2-0.3,0.4-0.4,0.6s-0.1,0.6-0.1,1v0.6h2.7v2h-2.6v8.7H254z"
   id="path42"
   style="fill:#ffffff;fill-opacity:1" />
		<path
   class="st0"
   d="M272.7,237.8v10.8h-1.8c-0.4,0-0.6-0.2-0.7-0.5l-0.2-0.8c-0.2,0.2-0.4,0.4-0.7,0.6c-0.2,0.2-0.5,0.3-0.7,0.5    c-0.3,0.1-0.5,0.2-0.9,0.3c-0.3,0.1-0.6,0.1-1,0.1c-0.6,0-1.1-0.1-1.6-0.3c-0.5-0.2-0.8-0.5-1.1-0.9c-0.3-0.4-0.5-0.8-0.7-1.3    c-0.2-0.5-0.2-1.1-0.2-1.7v-6.9h2.9v6.9c0,0.6,0.1,1.1,0.4,1.4c0.3,0.3,0.7,0.5,1.2,0.5c0.4,0,0.8-0.1,1.1-0.3    c0.4-0.2,0.7-0.4,1-0.7v-7.8H272.7z"
   id="path44"
   style="fill:#ffffff;fill-opacity:1" />
		<path
   class="st0"
   d="M281.1,248.8c-0.5,0-0.9-0.1-1.3-0.2c-0.4-0.1-0.7-0.3-1-0.6c-0.3-0.3-0.5-0.6-0.6-1    c-0.1-0.4-0.2-0.8-0.2-1.3v-5.8h-1c-0.2,0-0.3,0-0.4-0.1c-0.1-0.1-0.2-0.2-0.2-0.4v-1.1l1.7-0.3l0.6-2.8c0.1-0.3,0.3-0.5,0.6-0.5    h1.5v3.3h2.8v2h-2.8v5.6c0,0.3,0.1,0.5,0.2,0.7c0.1,0.2,0.3,0.3,0.6,0.3c0.1,0,0.3,0,0.4,0c0.1,0,0.2-0.1,0.3-0.1    c0.1,0,0.1-0.1,0.2-0.1c0.1,0,0.1,0,0.2,0c0.1,0,0.2,0,0.2,0.1c0.1,0,0.1,0.1,0.2,0.2l0.9,1.4c-0.4,0.3-0.8,0.6-1.4,0.7    C282.1,248.7,281.6,248.8,281.1,248.8z"
   id="path46"
   style="fill:#ffffff;fill-opacity:1" />
		<path
   class="st0"
   d="M297,237.8v10.8h-1.8c-0.4,0-0.6-0.2-0.7-0.5l-0.2-0.8c-0.2,0.2-0.4,0.4-0.7,0.6c-0.2,0.2-0.5,0.3-0.7,0.5    c-0.3,0.1-0.5,0.2-0.9,0.3c-0.3,0.1-0.6,0.1-1,0.1c-0.6,0-1.1-0.1-1.6-0.3c-0.5-0.2-0.8-0.5-1.1-0.9c-0.3-0.4-0.5-0.8-0.7-1.3    c-0.2-0.5-0.2-1.1-0.2-1.7v-6.9h2.9v6.9c0,0.6,0.1,1.1,0.4,1.4c0.3,0.3,0.7,0.5,1.2,0.5c0.4,0,0.8-0.1,1.1-0.3    c0.4-0.2,0.7-0.4,1-0.7v-7.8H297z"
   id="path48"
   style="fill:#ffffff;fill-opacity:1" />
		<path
   class="st0"
   d="M304.5,239.6c0.3-0.6,0.7-1.1,1.2-1.5c0.4-0.4,1-0.5,1.6-0.5c0.5,0,0.9,0.1,1.2,0.3l-0.2,2.1    c0,0.1-0.1,0.2-0.2,0.3c-0.1,0.1-0.2,0.1-0.3,0.1c-0.1,0-0.3,0-0.5,0s-0.4,0-0.6,0c-0.3,0-0.5,0-0.7,0.1c-0.2,0.1-0.4,0.2-0.6,0.3    s-0.3,0.3-0.4,0.5c-0.1,0.2-0.2,0.4-0.4,0.7v6.6h-2.9v-10.8h1.7c0.3,0,0.5,0.1,0.6,0.2c0.1,0.1,0.2,0.3,0.2,0.5L304.5,239.6z"
   id="path50"
   style="fill:#ffffff;fill-opacity:1" />
		<path
   class="st0"
   d="M314.3,243.7c0.1,1,0.4,1.8,0.9,2.2s1.1,0.7,1.9,0.7c0.4,0,0.7,0,1-0.1c0.3-0.1,0.5-0.2,0.8-0.3    c0.2-0.1,0.4-0.2,0.6-0.3c0.2-0.1,0.4-0.1,0.5-0.1c0.2,0,0.4,0.1,0.5,0.3l0.8,1c-0.3,0.4-0.6,0.7-1,0.9c-0.4,0.2-0.8,0.4-1.2,0.6    c-0.4,0.1-0.8,0.2-1.2,0.3c-0.4,0.1-0.8,0.1-1.2,0.1c-0.8,0-1.5-0.1-2.1-0.4c-0.7-0.2-1.2-0.6-1.7-1.1s-0.9-1.1-1.2-1.8    c-0.3-0.7-0.4-1.6-0.4-2.5c0-0.7,0.1-1.4,0.4-2.1c0.2-0.7,0.6-1.2,1-1.7c0.5-0.5,1-0.9,1.7-1.1s1.4-0.4,2.2-0.4    c0.7,0,1.3,0.1,1.9,0.3c0.6,0.2,1.1,0.5,1.5,1c0.4,0.4,0.8,0.9,1,1.5s0.4,1.3,0.4,2.1c0,0.2,0,0.4,0,0.5c0,0.1-0.1,0.3-0.1,0.3    c0,0.1-0.1,0.1-0.2,0.2s-0.2,0-0.3,0H314.3z M318.9,242c0-0.3,0-0.6-0.1-0.9c-0.1-0.3-0.2-0.5-0.4-0.7c-0.2-0.2-0.4-0.4-0.7-0.5    c-0.3-0.1-0.6-0.2-1-0.2c-0.7,0-1.2,0.2-1.6,0.6c-0.4,0.4-0.6,1-0.8,1.7H318.9z"
   id="path52"
   style="fill:#ffffff;fill-opacity:1" />
		<path
   class="st0"
   d="M332.4,240c-0.1,0.1-0.2,0.2-0.2,0.3c-0.1,0.1-0.2,0.1-0.3,0.1s-0.3,0-0.4-0.1c-0.1-0.1-0.3-0.1-0.5-0.2    c-0.2-0.1-0.4-0.2-0.6-0.2c-0.2-0.1-0.5-0.1-0.8-0.1c-0.5,0-0.8,0.1-1.1,0.3c-0.3,0.2-0.4,0.4-0.4,0.8c0,0.2,0.1,0.4,0.2,0.5    c0.1,0.1,0.3,0.3,0.6,0.4c0.2,0.1,0.5,0.2,0.8,0.3c0.3,0.1,0.6,0.2,1,0.3c0.3,0.1,0.6,0.2,1,0.4c0.3,0.1,0.6,0.3,0.8,0.6    c0.2,0.2,0.4,0.5,0.6,0.8c0.1,0.3,0.2,0.7,0.2,1.1c0,0.5-0.1,1-0.3,1.5c-0.2,0.4-0.5,0.8-0.8,1.1c-0.4,0.3-0.8,0.6-1.4,0.8    c-0.6,0.2-1.2,0.3-1.9,0.3c-0.4,0-0.7,0-1.1-0.1c-0.4-0.1-0.7-0.2-1-0.3c-0.3-0.1-0.6-0.3-0.9-0.4s-0.5-0.3-0.7-0.5l0.7-1.1    c0.1-0.1,0.2-0.2,0.3-0.3c0.1-0.1,0.3-0.1,0.4-0.1c0.2,0,0.3,0,0.5,0.1c0.1,0.1,0.3,0.2,0.5,0.3c0.2,0.1,0.4,0.2,0.6,0.3    c0.2,0.1,0.6,0.1,0.9,0.1c0.3,0,0.5,0,0.7-0.1c0.2-0.1,0.4-0.1,0.5-0.3s0.2-0.2,0.3-0.4c0.1-0.1,0.1-0.3,0.1-0.4    c0-0.2-0.1-0.4-0.2-0.6c-0.2-0.2-0.3-0.3-0.6-0.4c-0.2-0.1-0.5-0.2-0.8-0.3c-0.3-0.1-0.6-0.2-1-0.3c-0.3-0.1-0.6-0.2-1-0.4    c-0.3-0.2-0.6-0.3-0.8-0.6s-0.4-0.5-0.6-0.9s-0.2-0.8-0.2-1.2c0-0.4,0.1-0.9,0.3-1.3c0.2-0.4,0.4-0.8,0.8-1.1s0.8-0.6,1.3-0.7    c0.5-0.2,1.1-0.3,1.8-0.3c0.8,0,1.5,0.1,2.1,0.4s1.1,0.6,1.6,1L332.4,240z"
   id="path54"
   style="fill:#ffffff;fill-opacity:1" />
	</g>
	<g
   id="g66"
   style="fill:#ffffff;fill-opacity:1">
		<path
   class="st0"
   d="M92.9,144.4v3.4h4.5v2.5h-4.5v3.4h5.9v2.6h-9.3v-14.5h9.3v2.6H92.9z"
   id="path58"
   style="fill:#ffffff;fill-opacity:1" />
		<path
   class="st0"
   d="M109.4,144.8c-0.1,0.2-0.2,0.3-0.3,0.4s-0.2,0.1-0.4,0.1c-0.2,0-0.3,0-0.5-0.1c-0.2-0.1-0.4-0.2-0.6-0.3    s-0.5-0.2-0.8-0.3c-0.3-0.1-0.6-0.1-1-0.1c-0.6,0-1.1,0.1-1.4,0.4c-0.3,0.3-0.5,0.6-0.5,1.1c0,0.3,0.1,0.5,0.3,0.7    s0.4,0.4,0.7,0.5c0.3,0.1,0.6,0.3,1,0.4c0.4,0.1,0.8,0.2,1.2,0.4c0.4,0.1,0.8,0.3,1.2,0.5c0.4,0.2,0.7,0.4,1,0.7    c0.3,0.3,0.5,0.7,0.7,1.1c0.2,0.4,0.3,0.9,0.3,1.5c0,0.7-0.1,1.3-0.3,1.9c-0.2,0.6-0.6,1.1-1,1.5s-1,0.8-1.6,1s-1.4,0.4-2.2,0.4    c-0.4,0-0.9,0-1.4-0.1c-0.5-0.1-0.9-0.2-1.4-0.4c-0.4-0.2-0.8-0.4-1.2-0.6c-0.4-0.2-0.7-0.5-1-0.8l1-1.6c0.1-0.1,0.2-0.2,0.3-0.3    c0.1-0.1,0.3-0.1,0.4-0.1c0.2,0,0.4,0.1,0.6,0.2c0.2,0.1,0.4,0.3,0.7,0.4c0.3,0.2,0.5,0.3,0.9,0.4c0.3,0.1,0.7,0.2,1.2,0.2    c0.6,0,1.1-0.1,1.4-0.4c0.3-0.3,0.5-0.7,0.5-1.3c0-0.3-0.1-0.6-0.3-0.8c-0.2-0.2-0.4-0.4-0.7-0.5c-0.3-0.1-0.6-0.3-1-0.4    c-0.4-0.1-0.8-0.2-1.2-0.4c-0.4-0.1-0.8-0.3-1.2-0.5c-0.4-0.2-0.7-0.4-1-0.7c-0.3-0.3-0.5-0.7-0.7-1.2s-0.3-1-0.3-1.7    c0-0.5,0.1-1.1,0.3-1.6s0.5-1,1-1.4c0.4-0.4,0.9-0.7,1.6-1c0.6-0.2,1.3-0.4,2.1-0.4c0.4,0,0.9,0,1.3,0.1c0.4,0.1,0.8,0.2,1.2,0.3    c0.4,0.1,0.7,0.3,1.1,0.5c0.3,0.2,0.6,0.4,0.9,0.6L109.4,144.8z"
   id="path60"
   style="fill:#ffffff;fill-opacity:1" />
		<path
   class="st0"
   d="M123.3,144.5h-4.1v11.8h-3.4v-11.8h-4.1v-2.7h11.5V144.5z"
   id="path62"
   style="fill:#ffffff;fill-opacity:1" />
		<path
   class="st0"
   d="M138.3,149.1c0,1-0.2,2-0.5,2.9c-0.4,0.9-0.9,1.6-1.5,2.3s-1.4,1.1-2.4,1.5c-0.9,0.4-1.9,0.5-3.1,0.5h-5.6    v-14.5h5.6c1.1,0,2.1,0.2,3.1,0.5s1.7,0.9,2.4,1.5s1.2,1.4,1.5,2.3C138.1,147.1,138.3,148,138.3,149.1z M134.8,149.1    c0-0.7-0.1-1.4-0.3-1.9s-0.5-1.1-0.8-1.5c-0.3-0.4-0.8-0.7-1.3-0.9c-0.5-0.2-1.1-0.3-1.7-0.3h-2.2v9.3h2.2c0.6,0,1.2-0.1,1.7-0.3    c0.5-0.2,0.9-0.5,1.3-0.9c0.3-0.4,0.6-0.9,0.8-1.5S134.8,149.8,134.8,149.1z"
   id="path64"
   style="fill:#ffffff;fill-opacity:1" />
	</g>
	<g
   id="g76"
   style="fill:#ffffff;fill-opacity:1">
		<path
   class="st0"
   d="M272,153.5c0.3,0,0.6,0.1,0.8,0.3c0.2,0.2,0.3,0.4,0.3,0.7v1.8h-10.2v-1c0-0.2,0-0.4,0.1-0.6    c0.1-0.2,0.2-0.4,0.4-0.6l4.2-4.2c0.4-0.4,0.7-0.7,0.9-1s0.5-0.6,0.7-1c0.2-0.3,0.3-0.6,0.4-0.9c0.1-0.3,0.1-0.6,0.1-1    c0-0.6-0.1-1-0.4-1.3c-0.3-0.3-0.7-0.5-1.3-0.5c-0.5,0-0.8,0.1-1.2,0.4c-0.3,0.2-0.5,0.5-0.6,0.9c-0.1,0.4-0.3,0.6-0.5,0.7    s-0.5,0.1-1,0.1l-1.6-0.3c0.1-0.7,0.3-1.3,0.6-1.9c0.3-0.5,0.7-1,1.1-1.3c0.4-0.4,1-0.6,1.5-0.8s1.2-0.3,1.9-0.3    c0.7,0,1.4,0.1,1.9,0.3c0.6,0.2,1.1,0.5,1.5,0.9c0.4,0.4,0.7,0.8,0.9,1.3s0.3,1.1,0.3,1.7c0,0.5-0.1,1-0.2,1.5s-0.4,0.9-0.6,1.3    s-0.6,0.8-0.9,1.2c-0.3,0.4-0.7,0.8-1.1,1.2l-2.8,2.9c0.4-0.1,0.7-0.2,1.1-0.3c0.4-0.1,0.7-0.1,1-0.1H272z"
   id="path68"
   style="fill:#ffffff;fill-opacity:1" />
		<path
   class="st0"
   d="M285.5,149.1c0,1.3-0.1,2.4-0.4,3.3s-0.6,1.7-1.1,2.3c-0.5,0.6-1,1.1-1.7,1.4c-0.7,0.3-1.4,0.4-2.1,0.4    s-1.5-0.1-2.1-0.4c-0.7-0.3-1.2-0.8-1.7-1.4c-0.5-0.6-0.8-1.4-1.1-2.3s-0.4-2-0.4-3.3s0.1-2.4,0.4-3.3s0.6-1.7,1.1-2.3    c0.5-0.6,1-1.1,1.7-1.4c0.7-0.3,1.4-0.4,2.1-0.4s1.5,0.1,2.1,0.4s1.2,0.7,1.7,1.4c0.5,0.6,0.9,1.4,1.1,2.3    S285.5,147.8,285.5,149.1z M282.4,149.1c0-1-0.1-1.8-0.2-2.5c-0.1-0.6-0.3-1.1-0.5-1.5c-0.2-0.4-0.4-0.6-0.7-0.7s-0.5-0.2-0.8-0.2    s-0.5,0.1-0.8,0.2c-0.3,0.1-0.5,0.4-0.7,0.7s-0.4,0.9-0.5,1.5c-0.1,0.6-0.2,1.5-0.2,2.5c0,1,0.1,1.8,0.2,2.5    c0.1,0.6,0.3,1.1,0.5,1.5s0.4,0.6,0.7,0.8c0.3,0.1,0.5,0.2,0.8,0.2s0.5-0.1,0.8-0.2c0.3-0.1,0.5-0.4,0.7-0.8    c0.2-0.4,0.4-0.9,0.5-1.5C282.3,150.9,282.4,150.1,282.4,149.1z"
   id="path70"
   style="fill:#ffffff;fill-opacity:1" />
		<path
   class="st0"
   d="M295.9,153.5c0.3,0,0.6,0.1,0.8,0.3c0.2,0.2,0.3,0.4,0.3,0.7v1.8h-10.2v-1c0-0.2,0-0.4,0.1-0.6    c0.1-0.2,0.2-0.4,0.4-0.6l4.2-4.2c0.4-0.4,0.7-0.7,0.9-1s0.5-0.6,0.7-1c0.2-0.3,0.3-0.6,0.4-0.9c0.1-0.3,0.1-0.6,0.1-1    c0-0.6-0.1-1-0.4-1.3c-0.3-0.3-0.7-0.5-1.3-0.5c-0.5,0-0.8,0.1-1.2,0.4c-0.3,0.2-0.5,0.5-0.6,0.9c-0.1,0.4-0.3,0.6-0.5,0.7    s-0.5,0.1-1,0.1l-1.6-0.3c0.1-0.7,0.3-1.3,0.6-1.9c0.3-0.5,0.7-1,1.1-1.3c0.4-0.4,1-0.6,1.5-0.8s1.2-0.3,1.9-0.3    c0.7,0,1.4,0.1,1.9,0.3c0.6,0.2,1.1,0.5,1.5,0.9c0.4,0.4,0.7,0.8,0.9,1.3s0.3,1.1,0.3,1.7c0,0.5-0.1,1-0.2,1.5s-0.4,0.9-0.6,1.3    s-0.6,0.8-0.9,1.2c-0.3,0.4-0.7,0.8-1.1,1.2l-2.8,2.9c0.4-0.1,0.7-0.2,1.1-0.3c0.4-0.1,0.7-0.1,1-0.1H295.9z"
   id="path72"
   style="fill:#ffffff;fill-opacity:1" />
		<path
   class="st0"
   d="M307.8,153.5c0.3,0,0.6,0.1,0.8,0.3c0.2,0.2,0.3,0.4,0.3,0.7v1.8h-10.2v-1c0-0.2,0-0.4,0.1-0.6    c0.1-0.2,0.2-0.4,0.4-0.6l4.2-4.2c0.4-0.4,0.7-0.7,0.9-1s0.5-0.6,0.7-1c0.2-0.3,0.3-0.6,0.4-0.9c0.1-0.3,0.1-0.6,0.1-1    c0-0.6-0.1-1-0.4-1.3c-0.3-0.3-0.7-0.5-1.3-0.5c-0.5,0-0.8,0.1-1.2,0.4c-0.3,0.2-0.5,0.5-0.6,0.9c-0.1,0.4-0.3,0.6-0.5,0.7    s-0.5,0.1-1,0.1l-1.6-0.3c0.1-0.7,0.3-1.3,0.6-1.9c0.3-0.5,0.7-1,1.1-1.3c0.4-0.4,1-0.6,1.5-0.8s1.2-0.3,1.9-0.3    c0.7,0,1.4,0.1,1.9,0.3c0.6,0.2,1.1,0.5,1.5,0.9c0.4,0.4,0.7,0.8,0.9,1.3s0.3,1.1,0.3,1.7c0,0.5-0.1,1-0.2,1.5s-0.4,0.9-0.6,1.3    s-0.6,0.8-0.9,1.2c-0.3,0.4-0.7,0.8-1.1,1.2l-2.8,2.9c0.4-0.1,0.7-0.2,1.1-0.3c0.4-0.1,0.7-0.1,1-0.1H307.8z"
   id="path74"
   style="fill:#ffffff;fill-opacity:1" />
	</g>
	<path
   class="st0"
   d="M243.2,139.5c0,16.4-13.3,29.7-29.7,29.7c-4.8,0-9.6-1.2-13.8-3.4c-4.2,2.2-9,3.4-13.8,3.4   c-16.4,0-29.7-13.3-29.7-29.7s13.3-29.7,29.7-29.7c4.8,0,9.6,1.2,13.8,3.4c4.2-2.2,8.9-3.4,13.8-3.4   C229.9,109.8,243.2,123.2,243.2,139.5z M188.1,141.6c0.7,8.3,5.4,15.8,12.7,20c3.8,2.2,8.2,3.4,12.8,3.4   c14.1,0,25.5-11.4,25.5-25.5S227.6,114,213.5,114c-3.3,0-6.6,0.6-9.7,1.9c7.3,5.6,11.7,14.3,11.7,23.6v2.1H188.1z M183.9,139.5   v-2.1h27.5c-0.7-8.3-5.4-15.8-12.7-20c-3.9-2.2-8.3-3.4-12.8-3.4c-14.1,0-25.5,11.4-25.5,25.5s11.4,25.5,25.5,25.5   c3.3,0,6.6-0.6,9.7-1.9C188.3,157.6,183.9,148.8,183.9,139.5z"
   id="path78"
   style="fill:#ffffff;fill-opacity:1" />
	
		<rect
   x="183.6"
   y="276.3"
   transform="matrix(0.7078 -0.7064 0.7064 0.7078 -137.8154 222.2328)"
   class="st0"
   width="32.3"
   height="2.9"
   id="rect80"
   style="fill:#ffffff;fill-opacity:1" />
	
		<rect
   x="198.3"
   y="261.6"
   transform="matrix(0.7071 -0.7071 0.7071 0.7071 -137.8725 222.581)"
   class="st0"
   width="2.9"
   height="32.3"
   id="rect82"
   style="fill:#ffffff;fill-opacity:1" />
	<rect
   x="261.6"
   y="165.6"
   class="st0"
   width="48.8"
   height="2.7"
   id="rect84"
   style="fill:#ffffff;fill-opacity:1" />
	<rect
   x="89"
   y="165.6"
   class="st0"
   width="48.8"
   height="2.7"
   id="rect86"
   style="fill:#ffffff;fill-opacity:1" />
</g>
<g
   id="g89">
</g>
<g
   id="g91">
</g>
<g
   id="g93">
</g>
<g
   id="g95">
</g>
<g
   id="g97">
</g>
<g
   id="g99">
</g>
<g
   id="g101">
</g>
<g
   id="g103">
</g>
<g
   id="g105">
</g>
<g
   id="g107">
</g>
<g
   id="g109">
</g>
<g
   id="g111">
</g>
<g
   id="g113">
</g>
<g
   id="g115">
</g>
<g
   id="g117">
</g>
</svg>
